<svg width="352" height="439" viewBox="0 0 352 439" fill="none" xmlns="http://www.w3.org/2000/svg">
<path d="M188.435 114.105C171.785 114.105 157.794 109.274 147.976 100.133C138.532 91.3519 133.538 79.2503 133.538 65.1341C133.538 37.0526 156.947 14.2081 185.724 14.2081C213.819 14.2081 235.003 36.101 235.003 65.1341C235.009 94.4297 216.293 114.105 188.435 114.105Z" fill="#F9DD8D"/>
<path d="M185.724 15.5206C199.105 15.5206 211.318 20.6659 220.191 30.0045C228.893 39.1922 233.69 51.661 233.69 65.1341C233.69 93.6422 215.499 112.792 188.408 112.792C172.093 112.792 158.417 108.087 148.842 99.1745C139.654 90.6431 134.831 78.8762 134.831 65.1341C134.831 37.7811 157.656 15.5206 185.705 15.5206H185.724ZM185.705 12.8955C156.173 12.8955 132.206 36.2848 132.206 65.1341C132.206 93.9834 153.062 115.417 188.408 115.417C217.94 115.417 236.315 93.9834 236.315 65.1341C236.315 36.2848 215.269 12.8955 185.724 12.8955H185.705Z" fill="#F3BB1C"/>
<path d="M183.913 49.935C188.507 49.935 191.132 54.1875 192.005 57.8101C192.136 58.379 192.453 58.8878 192.906 59.2563C193.359 59.6247 193.921 59.8318 194.505 59.8446C195.502 59.8446 196.611 60.3761 196.611 61.0783C196.611 61.7805 195.502 62.299 194.505 62.3187C193.922 62.3311 193.36 62.5373 192.908 62.9045C192.455 63.2716 192.137 63.7788 192.005 64.3465C191.158 67.9887 188.533 72.2216 183.913 72.2216C182.72 72.1987 181.55 71.8885 180.503 71.3173C179.455 70.7461 178.56 69.9307 177.895 68.9403C176.292 66.6134 175.434 63.8548 175.434 61.0293C175.434 58.2037 176.292 55.4448 177.895 53.1179C178.56 52.1275 179.455 51.3121 180.503 50.7409C181.55 50.1697 182.72 49.8595 183.913 49.8366V49.935ZM183.913 47.2115C177.035 47.2115 172.809 54.1285 172.809 60.9931C172.809 67.8576 177.035 74.7746 183.913 74.7746C189.478 74.7746 193.311 70.2267 194.564 64.8454C196.914 64.7929 199.237 63.3359 199.237 60.9799C199.237 58.6239 196.914 57.1737 194.564 57.1212C193.311 51.7332 189.478 47.192 183.913 47.192V47.2115Z" fill="#F3BB1C"/>
<path d="M223.059 49.653C226.951 49.653 229.562 55.5593 229.562 61.0982C229.562 66.637 226.938 72.5434 223.059 72.5434C219.778 72.5434 217.612 68.5203 216.877 64.5368C216.78 64.0096 216.504 63.5317 216.097 63.183C215.69 62.8342 215.175 62.6357 214.639 62.6206C214.253 62.5952 213.892 62.4243 213.627 62.1422C213.363 61.8601 213.216 61.4879 213.216 61.1014C213.216 60.7149 213.363 60.3427 213.627 60.0606C213.892 59.7785 214.253 59.6075 214.639 59.5822C215.175 59.5659 215.689 59.3671 216.096 59.0185C216.503 58.67 216.779 58.1927 216.877 57.6659C217.612 53.6759 219.81 49.653 223.059 49.653ZM223.059 47.3099C218.623 47.3099 215.571 51.8515 214.573 57.2394C213.577 57.2805 212.634 57.7053 211.944 58.4251C211.253 59.1449 210.867 60.1038 210.867 61.1014C210.867 62.099 211.253 63.0579 211.944 63.7777C212.634 64.4975 213.577 64.9226 214.573 64.9637C215.571 70.345 218.623 74.8928 223.059 74.8928C228.539 74.8928 231.905 67.9758 231.905 61.1113C231.905 54.2468 228.539 47.3298 223.059 47.3298V47.3099Z" fill="#F3BB1C"/>
<path d="M206.344 75.9951H208.313C210.282 75.9951 211.863 74.8795 211.863 72.9173C211.863 70.955 210.275 69.8462 208.313 69.8462" stroke="#F3BB1C" stroke-width="2.61193" stroke-linecap="round" stroke-linejoin="round"/>
<path d="M197.228 89.3896C199.422 89.9045 201.669 90.1534 203.922 90.1311C206.372 90.1548 208.816 89.8683 211.194 89.278" stroke="#F3BB1C" stroke-width="2.61193" stroke-linecap="round" stroke-linejoin="round"/>
<path d="M138.939 34.4668C143.763 42.5257 152.497 47.7232 160.556 42.9063C164.427 40.5923 167.22 36.8356 168.321 32.4622C169.422 28.0887 168.741 23.4571 166.427 19.5862C164.113 15.7153 160.356 12.9222 155.982 11.8213C151.609 10.7204 146.977 11.4017 143.106 13.7157C139.372 15.9536 130.027 21.8404 129.614 31.2643C129.404 35.9107 136.353 30.1224 138.939 34.4668Z" fill="#F3BB1C"/>
<path d="M130.053 67.3916C126.701 60.6491 124.945 53.2255 124.921 45.6955C124.921 28.7508 128.203 19.2679 136.242 12.9743C144.281 6.68079 157.242 3.36679 181.071 1.45706C182.049 1.37831 183.04 1.33882 184.031 1.33882C193.75 1.33882 203.752 5.23043 212.198 12.3049C218.871 17.8815 224.111 24.9771 227.476 32.9968C226.261 32.1436 224.962 31.3432 223.807 30.6345C222.683 30.0133 221.622 29.2859 220.637 28.4622C220.527 28.3196 220.388 28.201 220.23 28.1142C209.31 22.0635 199.309 19.1236 189.662 19.1236C179.818 19.1236 172.028 22.2932 166.332 25.0627C154.932 30.6015 144.419 39.5793 130.158 65.4164C130.049 65.6178 129.993 65.8436 129.994 66.0727C129.988 66.4008 130.014 66.8469 130.053 67.3916Z" fill="white"/>
<path d="M184.031 2.65133C193.442 2.65133 203.148 6.4378 211.358 13.3089C216.702 17.7878 221.121 23.2674 224.365 29.4399C223.415 28.8961 222.503 28.2888 221.635 27.622C221.42 27.3543 221.154 27.1313 220.854 26.9657C209.73 20.8034 199.525 17.7781 189.649 17.7781C179.542 17.7781 171.569 21.02 165.747 23.8485C154.322 29.4005 143.782 38.2863 129.725 63.4409C127.432 57.7957 126.247 51.7622 126.234 45.6692C126.234 14.7067 137.016 6.29351 181.176 2.73656C182.121 2.65781 183.079 2.62505 184.031 2.62505V2.65133ZM184.031 0C183.014 0 181.99 0.0394911 180.966 0.118243C136.025 3.72769 123.609 12.7839 123.609 45.6692C123.623 55.6006 126.593 65.3031 132.14 73.5408C131.715 71.0519 131.43 68.541 131.287 66.0201C144.74 41.6465 154.748 32.1043 166.889 26.2111C173.058 23.212 180.435 20.4031 189.642 20.4031C197.964 20.4031 207.781 22.6936 219.574 29.23C220.362 30.2669 223.807 31.9994 226.701 34.0404C228.348 35.202 229.825 36.462 230.534 37.7482C224.673 17.4829 205.228 0 184.024 0H184.031Z" fill="#F3BB1C"/>
<path d="M133.184 80.5169C130.985 76.0609 128.249 70.5417 128.163 68.7041C130.999 40.3142 154.119 27.4713 165.229 21.2959C172.645 17.1746 182.174 14.9037 192.064 14.9037C205.511 14.9037 217.737 19.0252 226.505 26.5066C227.161 27.4778 227.968 29.86 228.801 32.3735C229.458 34.4145 230.239 36.7311 231.151 38.9756C231.15 38.9984 231.14 39.02 231.125 39.0368C231.109 39.0535 231.088 39.0642 231.065 39.0672C222.495 32.4061 209.94 28.4491 197.425 28.4491C188.238 28.4491 179.811 30.5426 173.144 34.5064L172.908 34.6442C162.624 40.7277 135.501 56.7536 133.617 81.3635L133.184 80.5169Z" fill="white"/>
<path d="M192.064 16.1243C205.15 16.1243 217.035 20.0947 225.573 27.3202C226.137 28.2258 226.924 30.6016 227.62 32.741C227.948 33.7254 228.276 34.7754 228.663 35.8452C220.132 30.3851 208.759 27.1891 197.425 27.1891C188.001 27.1891 179.372 29.3415 172.487 33.4169L172.251 33.5546C162.407 39.3888 137.298 54.2269 132.908 77.1436C131.287 73.8032 129.522 69.9971 129.404 68.7108C132.226 41.0297 154.913 28.4226 165.833 22.3588C173.052 18.3359 182.384 16.1243 192.083 16.1243H192.064ZM192.083 13.6437C181.996 13.6437 172.205 15.9932 164.652 20.2064C152.714 26.8412 129.771 39.9401 126.936 68.6647C126.975 70.9616 130.217 77.2946 132.928 82.7744C133.005 82.938 133.128 83.0759 133.281 83.1714C133.435 83.2669 133.613 83.316 133.794 83.3127C134.047 83.3216 134.294 83.2298 134.479 83.0576C134.665 82.8855 134.775 82.6467 134.785 82.3937C136.019 57.7051 163.903 41.4038 173.767 35.5696C180.566 31.5467 188.94 29.6632 197.445 29.6632C209.481 29.6632 221.786 33.3841 230.258 39.9926C230.489 40.1779 230.776 40.2796 231.072 40.2813C231.287 40.2837 231.5 40.233 231.691 40.1336C231.883 40.0342 232.047 39.8893 232.168 39.7116C232.29 39.5339 232.367 39.3288 232.391 39.1146C232.415 38.9004 232.385 38.6836 232.306 38.4833C230.147 33.1939 228.84 27.4646 227.429 25.6337C217.743 17.3123 204.683 13.637 192.07 13.637L192.083 13.6437Z" fill="#F3BB1C"/>
<path d="M195.424 34.2309C193.703 34.2761 192.03 33.6571 190.754 32.5024C189.477 31.3477 188.693 29.7458 188.566 28.0291L188.225 16.2753C188.181 15.5186 188.294 14.7611 188.556 14.0498C188.818 13.3386 189.223 12.6888 189.747 12.141C190.357 11.5208 191.086 11.0302 191.89 10.6987C192.694 10.3671 193.556 10.2015 194.426 10.2116L215.88 10.4676C217.454 10.5136 218.959 11.1242 220.121 12.1881C221.282 13.2519 222.022 14.6978 222.206 16.2621L223.243 27.7208C223.323 28.4795 223.248 29.2463 223.022 29.9751C222.796 30.7039 222.425 31.3793 221.93 31.9602C221.435 32.5242 220.831 32.9817 220.155 33.3054C219.478 33.6292 218.742 33.8122 217.993 33.8435L195.85 34.2241L195.424 34.2309Z" fill="white"/>
<path d="M194.433 8.98421V11.4452H194.499L215.867 11.7012C217.141 11.727 218.362 12.2152 219.303 13.075C220.243 13.9347 220.839 15.1073 220.979 16.3739L222.016 27.8322C222.077 28.4276 222.016 29.0291 221.836 29.6001C221.657 30.171 221.363 30.6994 220.972 31.1529C220.591 31.5874 220.126 31.9402 219.605 32.1905C219.084 32.4409 218.518 32.5835 217.94 32.6097L195.798 32.9904H195.719H195.424C192.464 32.9904 189.944 30.7393 189.793 27.9764L189.452 16.2294V16.1768C189.42 15.5901 189.509 15.0031 189.714 14.4522C189.918 13.9013 190.233 13.3984 190.64 12.9743C191.136 12.4771 191.726 12.0844 192.377 11.8195C193.027 11.5546 193.724 11.4228 194.426 11.4321V8.97107L194.433 8.98421ZM194.426 8.97107C190.148 8.97107 186.788 12.2131 186.991 16.2951L187.332 28.0748C187.536 32.2158 191.152 35.4513 195.424 35.4513H195.838L218.026 35.0707C218.949 35.0327 219.854 34.8058 220.687 34.4041C221.519 34.0024 222.26 33.4346 222.864 32.7353C223.468 32.036 223.922 31.2204 224.198 30.3387C224.474 29.457 224.567 28.5278 224.47 27.6089L223.433 16.1505C223.228 14.2801 222.351 12.548 220.963 11.2766C219.576 10.0053 217.774 9.28158 215.893 9.24024L194.531 8.98421L194.426 8.97107Z" fill="#F3BB1C"/>
<path d="M207.617 29.7286C205.593 29.7332 203.641 28.9788 202.147 27.6143C200.652 26.2498 199.724 24.3745 199.545 22.3588C199.482 21.424 199.613 20.4865 199.93 19.6046C200.246 18.7227 200.74 17.9157 201.382 17.2336C202.071 16.506 202.903 15.9294 203.826 15.5408C204.749 15.1521 205.743 14.9596 206.744 14.9758C208.739 14.9822 210.663 15.7209 212.15 17.0516C213.636 18.3823 214.583 20.2123 214.81 22.1947C214.889 23.1197 214.78 24.0513 214.488 24.9326C214.196 25.8138 213.727 26.6262 213.11 27.3202C212.454 28.0499 211.655 28.6382 210.764 29.0489C209.873 29.4597 208.907 29.6842 207.926 29.709L207.617 29.7286Z" fill="white"/>
<path d="M206.725 13.749V16.21C208.413 16.2118 210.041 16.8336 211.301 17.9577C212.561 19.0817 213.363 20.6296 213.556 22.3067C213.623 23.0657 213.534 23.8302 213.295 24.5536C213.056 25.277 212.671 25.9437 212.165 26.5131C211.618 27.1176 210.954 27.6041 210.212 27.9426C209.471 28.2811 208.668 28.4646 207.853 28.4819H207.591C205.88 28.4905 204.228 27.8568 202.962 26.706C201.695 25.5552 200.907 23.9713 200.752 22.2673C200.698 21.5008 200.803 20.7312 201.06 20.0072C201.318 19.2832 201.723 18.6204 202.249 18.0605C202.826 17.4592 203.52 16.9835 204.289 16.6628C205.058 16.3421 205.885 16.1834 206.718 16.1968V13.7359L206.725 13.749ZM206.718 13.7359C205.581 13.7049 204.45 13.9101 203.397 14.3389C202.343 14.7677 201.39 15.4105 200.598 16.2266C199.806 17.0428 199.192 18.0148 198.795 19.0805C198.398 20.1462 198.227 21.2828 198.291 22.4182C198.483 24.7497 199.547 26.9229 201.271 28.5043C202.995 30.0858 205.251 30.9591 207.591 30.9496H207.945C209.066 30.9342 210.173 30.6888 211.196 30.2289C212.218 29.7691 213.136 29.1046 213.892 28.2762C214.648 27.4477 215.226 26.473 215.59 25.4124C215.955 24.3518 216.098 23.2277 216.011 22.1096C215.771 19.8156 214.69 17.6917 212.976 16.1478C211.262 14.6039 209.037 13.7494 206.731 13.749L206.718 13.7359Z" fill="#F3BB1C"/>
<path d="M157.846 115.758L155.608 115.22C152.327 114.439 149.643 114.098 149.643 110.725L150.069 108.487C150.185 107.9 150.084 107.291 149.786 106.773C149.489 106.254 149.014 105.861 148.449 105.665C147.783 105.426 147.222 104.962 146.863 104.353C146.503 103.745 146.368 103.029 146.48 102.331C146.539 101.966 146.501 101.592 146.369 101.247C146.238 100.901 146.018 100.596 145.732 100.363L142.148 97.4289C141.906 94.7579 152.517 87.1911 152.517 87.1911C169.731 71.7689 203.463 68.7304 211.883 68.8158C246.665 69.0914 229.011 93.7537 229.011 95.5585L225.953 99.0827L224.536 101.425C223.282 103.492 221.384 105.09 219.135 105.973L216.746 107.489L214.613 110.206C213.386 112.005 213.038 117.471 210.925 118.003C202.295 120.123 176.537 120.648 157.846 115.758Z" fill="white" stroke="#F3BB1C" stroke-width="2.62505" stroke-linecap="round" stroke-linejoin="round"/>
<path d="M189.747 245.704C169.783 245.704 155.267 244.352 142.673 241.314C127.914 237.75 126.628 234.259 126.628 218.01V166.349C126.628 166.001 126.489 165.667 126.243 165.421C125.997 165.175 125.663 165.036 125.315 165.036H125.203L51.0457 171.238C50.6388 171.278 50.1861 171.304 49.7661 171.304C46.6883 171.304 45.0936 170.031 44.293 168.968C43.7802 168.25 43.4433 167.421 43.3099 166.549C43.1765 165.677 43.2501 164.785 43.5249 163.947C45.5462 157.043 45.0018 150.087 41.8189 142.067C40.6835 139.226 41.2872 137.257 41.9894 136.108C43.6628 133.391 46.9705 133.083 49.1624 132.88L150.831 123.987C151.009 123.97 151.183 123.919 151.342 123.836C152.471 123.22 152.858 121.867 153.311 120.305C153.967 118.068 154.657 115.541 157.413 114.675C165.419 118.612 175.657 120.791 186.288 120.791C196.598 120.791 202.826 120.791 213.274 115.18C213.319 115.17 213.366 115.17 213.412 115.18C213.448 115.179 213.484 115.187 213.517 115.202C213.549 115.216 213.579 115.238 213.602 115.266C214.608 116.423 215.681 117.518 216.818 118.547C217.429 119.122 218.236 119.441 219.075 119.439H219.403L311.838 110.206C311.939 110.199 312.039 110.199 312.14 110.206C312.8 110.201 313.446 110.395 313.994 110.762C314.542 111.13 314.966 111.654 315.211 112.266L315.382 112.686C320.632 125.477 320.77 131.994 319.011 142.415L317.961 143.793C317.485 144.416 316.886 144.935 316.2 145.315C315.515 145.696 314.758 145.931 313.978 146.005L249.008 152.213C248.682 152.244 248.379 152.396 248.159 152.639C247.939 152.882 247.818 153.198 247.82 153.526C247.944 165.837 248.148 203.034 248.214 215.26V218.653C248.785 232.015 244.125 234.915 230.665 239.798C219.476 243.788 206.475 245.704 189.747 245.704Z" fill="white"/>
<path d="M312.14 111.453C312.54 111.453 312.93 111.572 313.261 111.795C313.592 112.019 313.848 112.336 313.998 112.706L314.168 113.126C319.162 125.319 319.504 131.383 317.771 141.818L316.918 142.94C316.55 143.418 316.088 143.815 315.561 144.107C315.034 144.399 314.453 144.581 313.853 144.64L248.883 150.848C248.231 150.91 247.626 151.214 247.186 151.7C246.747 152.185 246.505 152.818 246.508 153.473C246.632 165.771 246.836 202.955 246.901 215.162V218.581V218.68C247.17 224.94 246.245 228.747 243.804 231.398C241.362 234.049 236.932 236.051 230.219 238.485C219.174 242.502 206.318 244.392 189.747 244.392C169.895 244.392 155.471 243.079 142.982 240.041C135.612 238.262 132.042 236.484 130.244 233.695C128.308 230.702 127.941 225.872 127.941 218.01V166.349C127.941 165.653 127.664 164.985 127.172 164.493C126.679 164 126.012 163.724 125.316 163.724H125.099L50.9412 169.926H50.8886C50.5159 169.966 50.1413 169.986 49.7664 169.985C47.732 169.985 46.2421 169.374 45.3431 168.167C44.9541 167.614 44.701 166.977 44.6041 166.307C44.5072 165.638 44.5694 164.955 44.7855 164.315C46.8921 157.096 46.3406 149.877 43.033 141.582C42.2914 139.698 42.3178 138.09 43.1118 136.791C44.3325 134.822 46.7279 134.415 49.2742 134.166L150.942 125.26C151.301 125.229 151.65 125.124 151.966 124.952C153.587 124.079 154.079 122.327 154.558 120.627C155.215 118.324 155.76 116.775 157.335 116.066C165.439 119.945 175.67 122.071 186.302 122.071C196.579 122.071 202.872 122.071 213.169 116.696C214.042 117.667 215.138 118.704 215.932 119.472C216.786 120.275 217.916 120.722 219.089 120.719H219.548L311.963 111.485H312.153L312.14 111.453ZM312.153 108.86C312.009 108.86 311.865 108.86 311.72 108.86L219.286 118.094H219.089C218.584 118.096 218.097 117.903 217.73 117.556C216.638 116.555 215.604 115.492 214.633 114.373C214.486 114.194 214.302 114.05 214.093 113.951C213.884 113.852 213.656 113.802 213.425 113.802C213.161 113.8 212.902 113.865 212.671 113.993C202.551 119.426 196.664 119.446 186.302 119.446C175.231 119.446 165.144 117.097 157.544 113.244C151.599 114.629 152.57 121.638 150.719 122.649L49.0313 131.567C46.7279 131.777 42.8689 132.138 40.8607 135.419C40.001 136.824 39.2529 139.199 40.5852 142.546C43.6565 150.284 44.1881 156.984 42.2521 163.547C41.9209 164.58 41.8368 165.676 42.0066 166.748C42.1765 167.819 42.5956 168.836 43.2301 169.716C44.2079 171.028 46.1307 172.584 49.7533 172.584C50.218 172.584 50.6825 172.56 51.1447 172.511L125.302 166.316V218.01C125.302 234.594 126.877 238.853 142.365 242.587C155.057 245.652 169.672 247.017 189.741 247.017C206.626 247.017 219.765 245.101 231.085 240.979C244.926 235.959 250.117 232.723 249.5 218.594C249.5 216.205 249.231 167.734 249.086 153.46L314.056 147.252C315.017 147.16 315.948 146.872 316.791 146.405C317.635 145.937 318.373 145.3 318.959 144.535L320.206 142.894C322.063 132.026 321.965 125.352 316.55 112.128L316.38 111.709C316.032 110.857 315.439 110.129 314.676 109.616C313.912 109.103 313.014 108.828 312.094 108.828L312.153 108.86Z" fill="#F3BB1C"/>
<path d="M163.93 438.042C159.918 438.015 155.913 437.724 151.94 437.169C151.284 437.084 150.627 436.966 150.05 436.821C147.726 436.309 145.542 435.296 143.648 433.855C141.754 432.413 140.197 430.577 139.084 428.474C136.918 424.49 136.058 419.391 136.656 414.121C137.312 408.215 138.231 404.035 139.51 400.917L139.556 400.805V400.635C139.556 400.031 142.24 339.859 142.253 334.09V333.434L145.207 261.645L144.892 261.442C137.732 256.848 134.254 249.176 134.254 237.987V162.694C134.254 161.289 134.313 159.878 134.424 158.5L134.49 157.713L35.3417 167.911C34.9058 167.957 34.4676 167.979 34.0292 167.977C31.6105 167.974 29.2461 167.26 27.2304 165.923L27.0138 165.778L13.9539 168.055C13.8623 168.065 13.77 168.065 13.6783 168.055C13.2786 168.061 12.8919 167.915 12.5956 167.646C12.2993 167.378 12.1157 167.007 12.0816 166.609C12.0475 166.21 12.1653 165.814 12.4116 165.499C12.658 165.184 13.0147 164.975 13.4095 164.912L24.1132 163.041L23.5816 162.215C23.2416 161.679 22.9453 161.118 22.6955 160.535L22.4921 160.075L8.92716 162.09H8.69099C8.28661 162.097 7.8947 161.949 7.59605 161.676C7.29739 161.404 7.11468 161.027 7.08526 160.624C7.05585 160.22 7.18181 159.821 7.43775 159.508C7.69369 159.194 8.06008 158.991 8.46124 158.94L21.7176 156.971L21.6781 156.361C21.6388 155.784 21.6388 155.205 21.6781 154.628L21.7374 153.847L5.98711 155.534H5.81632C5.40655 155.542 5.01 155.39 4.70984 155.111C4.40967 154.832 4.22951 154.447 4.20738 154.038C4.18526 153.629 4.32294 153.227 4.59127 152.917C4.85961 152.607 5.23763 152.414 5.64584 152.377L22.6757 150.553L22.8333 150.225C23.0286 149.797 23.2477 149.381 23.4896 148.978L24.1459 147.928L10.5678 148.453C10.3601 148.461 10.1529 148.427 9.95802 148.355C9.76316 148.283 9.58452 148.173 9.43217 148.031C9.27982 147.89 9.15672 147.72 9.07008 147.531C8.98343 147.342 8.93492 147.138 8.92716 146.93C8.9194 146.723 8.95258 146.515 9.02489 146.321C9.09721 146.126 9.20716 145.947 9.34854 145.795C9.48992 145.642 9.65983 145.519 9.84875 145.433C10.0377 145.346 10.2419 145.297 10.4496 145.29L28.1687 144.6L24.1984 134.251C24.0126 133.764 24.0278 133.223 24.2407 132.747C24.4536 132.271 24.8467 131.898 25.3337 131.712C25.5569 131.622 25.7954 131.577 26.0358 131.58C26.4335 131.58 26.822 131.7 27.15 131.925C27.478 132.15 27.7304 132.469 27.8735 132.84L31.8701 143.281L32.3886 143.209H32.5722H32.743L150.168 131.134L150.299 131.049C158.831 125.628 169.128 123.758 176.261 123.141L176.865 123.088V121.776C180.67 122.326 184.511 122.598 188.356 122.589C191.223 122.585 194.086 122.366 196.92 121.933V123.324L197.518 123.377C202.802 123.797 208.031 124.751 213.123 126.225L213.386 126.304L213.629 126.173C215.116 125.354 216.755 124.851 218.446 124.696L319.786 115.253C319.989 115.253 320.186 115.253 320.39 115.253H321.085L323.454 104.923C323.555 104.49 323.799 104.104 324.147 103.828C324.495 103.551 324.926 103.401 325.371 103.4C325.518 103.399 325.666 103.415 325.81 103.446C326.318 103.563 326.759 103.877 327.036 104.319C327.312 104.761 327.403 105.294 327.287 105.802L324.964 115.915L325.489 116.119C325.856 116.263 326.21 116.427 326.565 116.604L326.742 116.696L339.677 115.2H339.861C340.158 115.202 340.449 115.288 340.7 115.447C340.951 115.607 341.152 115.833 341.28 116.101C341.409 116.369 341.46 116.668 341.427 116.963C341.394 117.259 341.279 117.539 341.095 117.772C340.966 117.935 340.807 118.071 340.625 118.171C340.444 118.271 340.244 118.334 340.038 118.357L330.319 119.485L330.975 120.391C331.293 120.827 331.582 121.282 331.841 121.756L332.038 122.117L345.59 121.461C345.997 121.46 346.389 121.617 346.684 121.898C346.978 122.179 347.153 122.563 347.171 122.97C347.189 123.39 347.041 123.8 346.758 124.111C346.476 124.422 346.082 124.608 345.662 124.631L333.108 125.221L333.206 125.936L333.246 126.166C333.246 126.284 333.278 126.396 333.292 126.514C333.332 126.933 333.35 127.353 333.344 127.774V128.43L343.726 128.358C344.129 128.384 344.507 128.562 344.783 128.857C345.059 129.151 345.212 129.539 345.212 129.943C345.212 130.346 345.059 130.735 344.783 131.029C344.507 131.323 344.129 131.502 343.726 131.528L332.668 131.6L332.511 132.02C332.268 132.662 331.974 133.283 331.631 133.877L331.073 134.842L339.73 135.006C339.937 135.01 340.142 135.054 340.333 135.136C340.524 135.219 340.696 135.338 340.84 135.488C340.985 135.637 341.098 135.813 341.175 136.007C341.251 136.2 341.288 136.406 341.285 136.614C341.275 137.029 341.103 137.423 340.807 137.714C340.51 138.004 340.112 138.168 339.697 138.169L327.832 137.946L327.667 138.058C325.986 139.162 324.06 139.838 322.057 140.026L238.612 147.797L238.888 148.591C240.423 153.136 241.178 157.909 241.12 162.707V238.006C241.12 248.146 238.297 255.345 232.489 260.017L232.234 260.227L235.771 331.104V331.524C235.771 335.311 235.83 350.398 235.974 376.38V377.036H237.077C245.136 377.036 252.453 385.915 253.74 397.255C254.501 404.002 253.477 409.133 250.609 412.946C246.501 418.406 238.645 421.176 227.259 421.176C223.246 421.149 219.238 420.858 215.263 420.303C214.606 420.211 213.983 420.1 213.373 419.955C211.049 419.443 208.864 418.43 206.971 416.989C205.077 415.547 203.52 413.711 202.406 411.608C200.241 407.618 199.381 402.525 199.979 397.249C200.576 391.972 201.357 388.12 202.433 385.108L202.472 384.996V384.885C202.393 371.392 202.216 339.235 202.216 331.924L199.014 267.873H198.357C194.722 267.952 190.909 267.958 187.614 267.958C184.845 267.958 181.885 267.958 179.05 267.912H178.394L175.657 334.556C175.585 342.018 174.004 374.509 173.032 393.213V393.869H173.689C181.688 393.948 188.96 402.827 190.239 414.082C191.007 420.828 189.983 425.967 187.109 429.78C183.178 435.24 175.323 438.042 163.93 438.042Z" fill="#F9DD8D"/>
<path d="M325.449 104.043C325.547 104.031 325.646 104.031 325.744 104.043C326.082 104.122 326.376 104.33 326.561 104.624C326.745 104.918 326.805 105.274 326.729 105.612L324.53 115.174L324.281 116.27L325.331 116.683C325.672 116.821 325.987 116.978 326.342 117.142L326.696 117.326L327.09 117.28L339.828 115.804H339.94C340.167 115.805 340.387 115.89 340.556 116.043C340.725 116.195 340.833 116.404 340.858 116.631C340.886 116.874 340.816 117.119 340.663 117.311C340.511 117.503 340.288 117.626 340.044 117.654L331.434 118.652L329.203 118.908L330.515 120.726C330.819 121.145 331.095 121.584 331.342 122.038L331.73 122.76L332.557 122.721L345.616 122.097H345.662C345.9 122.098 346.129 122.191 346.301 122.356C346.473 122.521 346.576 122.745 346.587 122.983C346.593 123.103 346.574 123.223 346.532 123.336C346.49 123.448 346.427 123.552 346.345 123.639C346.261 123.731 346.16 123.806 346.047 123.858C345.934 123.909 345.812 123.938 345.688 123.941L333.876 124.499L332.438 124.571L332.635 125.995L332.675 126.238C332.675 126.337 332.675 126.435 332.721 126.54C332.754 126.934 332.773 127.341 332.767 127.735V129.047H334.079L343.805 128.981C344.038 129.001 344.255 129.107 344.413 129.279C344.571 129.451 344.659 129.676 344.659 129.91C344.659 130.144 344.571 130.369 344.413 130.541C344.255 130.713 344.038 130.819 343.805 130.839L333.2 130.904H332.301L331.986 131.751C331.753 132.357 331.474 132.945 331.152 133.51L330.03 135.439L332.261 135.478L339.801 135.623C339.924 135.623 340.046 135.647 340.159 135.696C340.272 135.745 340.373 135.816 340.458 135.905C340.626 136.082 340.721 136.317 340.721 136.561C340.712 136.805 340.608 137.037 340.432 137.206C340.255 137.375 340.02 137.469 339.776 137.467L328.14 137.25H327.733L327.398 137.467C325.807 138.51 323.984 139.145 322.089 139.318L239.479 147.016L237.805 147.173L238.363 148.755C239.872 153.231 240.613 157.931 240.555 162.654V237.954C240.555 247.876 237.812 254.912 232.174 259.453L231.649 259.873L231.682 260.529L235.206 331.025V331.439C235.206 336.282 235.311 358.509 235.41 376.301V377.613H237.169C244.893 377.613 251.928 386.236 253.175 397.249C253.936 403.91 252.978 408.753 250.176 412.474C246.199 417.757 238.514 420.441 227.344 420.441C223.361 420.413 219.385 420.124 215.44 419.575C214.823 419.489 214.206 419.378 213.615 419.24C211.381 418.748 209.281 417.775 207.461 416.389C205.641 415.003 204.144 413.237 203.076 411.214C200.976 407.342 200.136 402.387 200.72 397.249C201.304 392.11 202.085 388.218 203.141 385.245L203.22 385.029V384.799C203.128 368.012 202.971 338.809 202.971 331.846V331.78L199.801 268.404L199.735 267.125L198.462 267.158C195.181 267.223 191.795 267.243 187.732 267.243C184.989 267.243 182.056 267.243 179.201 267.191H177.921L177.869 268.464L175.158 334.471V334.51C175.086 341.939 173.505 374.417 172.533 393.121L172.468 394.486H173.833C181.511 394.564 188.494 403.188 189.734 414.115C190.495 420.782 189.544 425.619 186.735 429.346C182.758 434.629 175.08 437.307 163.903 437.307C159.923 437.283 155.948 436.993 152.006 436.441C151.382 436.355 150.765 436.244 150.175 436.106C147.941 435.614 145.841 434.643 144.021 433.258C142.201 431.873 140.704 430.108 139.635 428.086C137.535 424.215 136.695 419.253 137.279 414.115C137.935 408.294 138.834 404.153 140.094 401.081L140.18 400.871V400.641C140.285 398.167 142.864 339.852 142.877 334.096V333.44L145.817 262.013V261.258L145.161 260.851C138.204 256.388 134.824 248.894 134.824 237.947V162.694C134.824 161.302 134.884 159.911 134.995 158.553L135.12 156.984L133.551 157.142L35.1907 167.255C34.7854 167.299 34.3776 167.321 33.9698 167.32C31.6775 167.307 29.4396 166.623 27.5322 165.351L27.0989 165.063L26.5869 165.148L13.7833 167.386H13.6193C13.4011 167.386 13.1898 167.309 13.0229 167.168C12.856 167.028 12.7441 166.833 12.707 166.618C12.6659 166.375 12.7226 166.125 12.8646 165.923C13.0066 165.724 13.221 165.589 13.4616 165.548L23.194 163.849L25.1628 163.507L24.0999 161.847C23.779 161.338 23.498 160.805 23.2597 160.252L22.8595 159.34L21.8684 159.485L8.80238 161.453H8.65787C8.43682 161.453 8.2234 161.373 8.05608 161.228C7.88875 161.084 7.77849 160.884 7.74557 160.666C7.71156 160.422 7.77452 160.176 7.92053 159.978C8.06654 159.78 8.28425 159.648 8.5268 159.609L21.1794 157.732L22.3804 157.555L22.2952 156.347C22.2623 155.799 22.2623 155.249 22.2952 154.7L22.4067 153.139L20.8446 153.303L5.87548 154.904H5.77678C5.5478 154.906 5.3263 154.823 5.15609 154.67C4.98588 154.516 4.87948 154.305 4.85808 154.077C4.83731 153.841 4.90797 153.606 5.05515 153.421C5.1363 153.323 5.23621 153.244 5.34899 153.186C5.46177 153.129 5.5851 153.095 5.71141 153.086L22.3737 151.301L23.1088 151.222L23.4238 150.566C23.6201 150.16 23.8392 149.766 24.08 149.385L25.3926 147.291L22.9252 147.383L10.5872 147.862H10.5478C10.3682 147.859 10.1935 147.804 10.0447 147.703C9.89595 147.603 9.77977 147.461 9.71019 147.295C9.64061 147.13 9.62058 146.947 9.65283 146.771C9.68509 146.594 9.76796 146.431 9.89156 146.3C9.97614 146.21 10.0779 146.138 10.1905 146.087C10.3031 146.037 10.4244 146.008 10.5478 146.005L27.3745 145.349L29.2055 145.277L28.5492 143.57L24.9135 134.074C24.7804 133.752 24.7804 133.391 24.9135 133.07C25.017 132.84 25.1849 132.644 25.3967 132.507C25.6086 132.369 25.8553 132.296 26.1078 132.295C26.3722 132.296 26.6302 132.377 26.848 132.527C27.0658 132.677 27.2335 132.889 27.3287 133.136L31.1416 143.091L31.5156 144.056L32.5458 143.918L32.756 143.885H32.887L150.155 131.83H150.463L150.726 131.665C159.152 126.31 169.331 124.447 176.392 123.856L177.593 123.751V122.616C181.185 123.093 184.805 123.33 188.428 123.324C191.073 123.326 193.715 123.147 196.336 122.786V124.02L197.531 124.125C202.771 124.539 207.956 125.485 213.005 126.947L213.53 127.105L214.016 126.835C215.424 126.063 216.977 125.587 218.577 125.438L319.917 116C320.094 116 320.284 116 320.488 116H320.665H321.682L321.912 115.01L324.169 105.166C324.237 104.879 324.4 104.623 324.631 104.44C324.862 104.256 325.148 104.156 325.443 104.155L325.449 104.043ZM325.443 102.842C324.85 102.844 324.275 103.045 323.811 103.415C323.348 103.784 323.023 104.299 322.89 104.877L320.632 114.721C320.35 114.721 320.074 114.721 319.799 114.76L218.452 124.197C216.674 124.362 214.95 124.892 213.386 125.753C208.246 124.266 202.969 123.305 197.635 122.885V121.323C194.588 121.83 191.504 122.082 188.415 122.078C184.348 122.088 180.286 121.781 176.267 121.159V122.609C168.635 123.265 158.489 125.234 150.017 130.622L32.7428 142.678C32.6182 142.678 32.4934 142.724 32.3622 142.737L28.5492 132.781C28.2764 132.166 27.7777 131.679 27.1563 131.421C26.5349 131.163 25.8382 131.154 25.2099 131.394C24.5816 131.635 24.0697 132.108 23.7801 132.716C23.4905 133.323 23.4453 134.018 23.6535 134.658L27.2893 144.154L10.4626 144.811C9.88839 144.851 9.35149 145.11 8.96292 145.534C8.57436 145.959 8.36396 146.517 8.37492 147.092C8.38587 147.668 8.61744 148.217 9.02189 148.626C9.42633 149.036 9.97252 149.274 10.5478 149.293H10.6398L22.9774 148.814C22.7142 149.236 22.4778 149.674 22.2689 150.126L5.60631 151.911C5.03761 151.973 4.51411 152.25 4.14349 152.686C3.77288 153.122 3.58324 153.683 3.61348 154.254C3.64373 154.826 3.89172 155.364 4.30628 155.758C4.72083 156.152 5.27042 156.372 5.84247 156.374C5.92109 156.38 6.00002 156.38 6.07864 156.374L21.0548 154.772C21.0088 155.38 21.0088 155.99 21.0548 156.597L8.40183 158.474C7.83659 158.549 7.32145 158.837 6.96145 159.279C6.60145 159.722 6.42372 160.284 6.46477 160.853C6.50581 161.422 6.76247 161.954 7.18223 162.34C7.602 162.726 8.15338 162.937 8.72356 162.93C8.83502 162.936 8.94663 162.936 9.0581 162.93L22.1244 160.961C22.3886 161.576 22.7026 162.169 23.063 162.733L13.3305 164.433C12.7785 164.528 12.2823 164.827 11.9401 165.271C11.598 165.715 11.4347 166.271 11.4826 166.829C11.5304 167.387 11.7858 167.907 12.1984 168.286C12.611 168.665 13.151 168.875 13.7112 168.876C13.8409 168.875 13.9703 168.864 14.0983 168.843L26.9022 166.611C29.026 168.017 31.5153 168.767 34.0618 168.771C34.5155 168.769 34.9691 168.745 35.4204 168.699L133.787 158.474C133.676 159.839 133.617 161.25 133.617 162.72V238.019C133.617 250.272 137.692 257.622 144.557 262.026L141.617 333.453V334.109C141.617 339.937 138.92 400.635 138.92 400.635C137.463 404.185 136.609 408.806 136.019 414.016C134.818 424.589 139.267 434.944 149.912 437.431C150.562 437.583 151.219 437.701 151.881 437.786C155.882 438.344 159.916 438.638 163.956 438.665C173.085 438.665 182.797 436.88 187.838 430.18C191.244 425.658 191.775 419.955 191.119 414.016C189.767 402.112 182.134 393.305 173.925 393.219C174.778 376.209 176.445 342.155 176.55 334.556L179.26 268.549C182.056 268.588 184.924 268.601 187.838 268.601C191.526 268.601 195.122 268.601 198.593 268.509L201.763 331.891C201.763 338.723 201.914 367.461 202.013 384.852C200.805 388.238 200.044 392.451 199.525 397.144C198.324 407.723 202.807 418.072 213.425 420.559C214.075 420.712 214.732 420.833 215.394 420.92C219.395 421.478 223.429 421.772 227.469 421.799C236.598 421.799 246.304 420.008 251.351 413.307C254.757 408.786 255.288 403.083 254.632 397.144C253.273 385.187 245.575 376.347 237.32 376.347H236.867C236.775 358.838 236.657 336.38 236.663 331.498V331.071L233.139 260.542C238.75 256.027 242.012 248.992 242.012 238.019V162.694C242.073 157.822 241.306 152.975 239.741 148.361L322.227 140.67C324.334 140.472 326.361 139.765 328.133 138.609L339.769 138.825H339.808C340.402 138.831 340.973 138.601 341.397 138.186C341.821 137.771 342.063 137.204 342.069 136.611C342.075 136.017 341.845 135.445 341.43 135.021C341.014 134.597 340.448 134.356 339.854 134.35L332.314 134.205C332.677 133.576 332.986 132.917 333.239 132.236L343.838 132.171C344.411 132.14 344.951 131.89 345.346 131.473C345.741 131.056 345.961 130.504 345.961 129.93C345.961 129.355 345.741 128.803 345.346 128.386C344.951 127.969 344.411 127.72 343.838 127.688L334.112 127.754C334.116 127.316 334.099 126.878 334.059 126.442C334.059 126.238 334 126.041 333.968 125.838L345.78 125.274C346.374 125.26 346.937 125.01 347.347 124.581C347.757 124.151 347.98 123.577 347.966 122.983C347.952 122.39 347.702 121.826 347.273 121.416C346.843 121.006 346.269 120.784 345.675 120.798H345.564L332.504 121.415C332.23 120.915 331.923 120.435 331.585 119.977L340.195 118.987C340.757 118.912 341.27 118.628 341.631 118.192C341.992 117.755 342.174 117.199 342.142 116.633C342.11 116.068 341.864 115.535 341.456 115.143C341.047 114.75 340.506 114.527 339.94 114.517C339.852 114.511 339.764 114.511 339.677 114.517L326.939 115.987C326.572 115.803 326.197 115.633 325.81 115.476L328.009 105.92C328.096 105.536 328.096 105.136 328.009 104.752C327.921 104.367 327.748 104.008 327.502 103.7C327.256 103.391 326.943 103.142 326.588 102.971C326.233 102.8 325.844 102.711 325.449 102.711L325.443 102.842Z" fill="#F3BB1C"/>
<path d="M187.752 267.617C185.49 267.617 183.261 267.617 181.065 267.617C175.879 261.562 169.113 257.067 161.522 254.633C153.931 252.2 145.812 251.923 138.073 253.835C135.737 249.694 134.601 244.516 134.601 238.033V234.751C148.501 241.681 175.198 242.456 186.322 242.456C188.907 242.456 190.476 242.41 190.495 242.41C214.213 242.41 227.207 238.039 240.903 230.44V238.006C240.903 244.129 239.892 249.077 237.818 253.1C230.558 251.925 223.117 252.636 216.211 255.164C209.304 257.693 203.163 261.953 198.377 267.538C195.109 267.597 191.749 267.617 187.752 267.617Z" fill="#3F3F3F"/>
<path d="M239.919 232.087V237.993C239.919 243.637 239.046 248.237 237.254 252.011C230.005 250.962 222.608 251.743 215.737 254.283C208.867 256.823 202.741 261.041 197.918 266.554C194.807 266.619 191.571 266.633 187.752 266.633C185.882 266.633 183.709 266.633 181.518 266.633C176.289 260.645 169.535 256.186 161.974 253.732C154.412 251.277 146.327 250.918 138.578 252.693C136.57 248.808 135.586 243.991 135.586 238.019V236.313C150.024 242.718 175.493 243.454 186.322 243.454C188.756 243.454 190.259 243.414 190.495 243.407C213.589 243.407 226.59 239.293 239.919 232.113V232.087ZM241.887 228.773C227.305 237.061 214.141 241.439 190.463 241.439C190.463 241.439 188.92 241.485 186.322 241.485C175.611 241.485 146.946 240.736 133.617 233.124V238.019C133.617 245.238 135.035 250.744 137.594 254.964C145.317 252.908 153.467 253.099 161.085 255.514C168.704 257.928 175.476 262.466 180.606 268.595C182.942 268.595 185.33 268.628 187.752 268.628C191.552 268.628 195.26 268.628 198.843 268.529C202.782 263.834 207.703 260.059 213.259 257.472C218.815 254.884 224.871 253.547 231 253.553C233.467 253.558 235.928 253.777 238.357 254.209C240.641 250.095 241.894 244.812 241.894 238.019V228.773H241.887Z" fill="#F3BB1C"/>
<path d="M180.376 203.986C155.943 203.986 137.41 199.654 133.61 198.696L133.387 171.297C142.667 170.602 150.063 167.071 155.372 160.797C161.489 153.578 163.654 143.938 164.396 137.139C164.84 133.081 164.917 128.991 164.626 124.919L169.469 123.895C168.812 136.168 171.044 145.165 176.156 150.645C177.955 152.536 180.13 154.03 182.54 155.032C184.951 156.033 187.544 156.519 190.154 156.459C191.287 156.47 192.419 156.374 193.534 156.171C198.193 155.554 201.868 153.506 204.447 150.093C209.816 142.999 209.146 131.935 208.273 125.969C208.252 125.853 208.258 125.733 208.289 125.62C208.321 125.506 208.379 125.401 208.457 125.313C208.532 125.225 208.624 125.155 208.728 125.106C208.833 125.057 208.946 125.032 209.061 125.031C209.122 125.024 209.184 125.024 209.245 125.031C209.317 125.037 209.389 125.037 209.461 125.031H209.54L213.333 124.716C213.441 124.757 213.538 124.821 213.619 124.904C213.699 124.987 213.761 125.086 213.799 125.195L218.61 146.491V146.563C220.532 152.76 224.663 158.035 230.219 161.388C230.274 161.42 230.331 161.448 230.39 161.473L241.454 165.529L242.025 180.623L241.664 193.695C223.079 200.547 202.459 203.986 180.376 203.986Z" fill="#A08C60"/>
<path d="M168.425 125.11C167.966 137.008 170.322 145.814 175.434 151.301C180.408 156.63 186.794 157.431 190.154 157.431C191.342 157.441 192.529 157.34 193.698 157.129C198.613 156.472 202.492 154.3 205.235 150.678C210.741 143.393 210.163 132.237 209.284 126.068H209.625L212.907 125.798L217.645 146.766L217.684 146.917C219.678 153.345 223.964 158.817 229.727 162.293C229.833 162.358 229.945 162.413 230.061 162.457L240.509 166.283L241.054 180.662L240.713 193.065C222.377 199.628 202.085 203.001 180.369 203.001C164.964 203.043 149.603 201.339 134.582 197.922L134.372 172.196C143.5 171.33 150.811 167.708 156.12 161.421C166.26 149.418 166.03 131.423 165.662 125.693L168.419 125.11H168.425ZM170.525 122.649L163.556 124.125C163.556 124.125 168.668 168.442 132.39 170.372L132.626 199.458C132.626 199.458 152.563 204.97 180.369 204.97C198.836 204.97 220.769 202.542 242.642 194.47L243.023 180.688L242.425 164.938L230.744 160.653C225.406 157.418 221.437 152.34 219.588 146.379L214.764 125.037C214.674 124.736 214.504 124.465 214.273 124.251C214.042 124.038 213.759 123.89 213.451 123.823L209.481 124.151C209.349 124.124 209.215 124.108 209.081 124.105C208.825 124.105 208.572 124.161 208.34 124.267C208.107 124.374 207.901 124.529 207.734 124.723C207.567 124.916 207.443 125.144 207.372 125.39C207.301 125.635 207.284 125.894 207.322 126.146C208.372 133.326 209.743 153.093 193.396 155.232C192.333 155.427 191.254 155.52 190.174 155.508C183.408 155.508 168.484 152.226 170.551 122.694L170.525 122.649Z" fill="#F3BB1C"/>
<path d="M189.747 233.518C170.191 233.518 156.028 232.205 143.809 229.258C131.865 226.377 131.524 224.98 131.524 210.739V161.867C131.524 161.606 131.42 161.355 131.235 161.171C131.051 160.986 130.8 160.882 130.539 160.882H130.46L50.5999 167.556C50.3099 167.587 50.0185 167.602 49.727 167.603C48.7951 167.603 48.3227 167.406 48.1914 167.235C48.0602 167.064 48.1914 166.703 48.1914 166.579C50.5343 158.566 49.9436 150.592 46.3342 141.496C46.0388 140.755 45.9666 140.184 46.1307 139.928C46.5113 139.311 48.5718 139.121 49.5562 139.029L149.466 129.894C150.536 129.776 151.684 129.126 153.272 128.214C153.981 127.807 154.775 127.354 155.661 126.901C165.282 129.697 178.033 131.239 191.631 131.239C196.225 131.239 200.819 131.055 205.202 130.701C205.159 130.825 205.102 130.944 205.032 131.055C202.098 135.616 197.616 141.943 193.278 148.059C183.926 161.256 177.764 170.122 177.232 172.997C176.53 176.862 177.062 180.216 178.807 182.887C181.275 186.693 184.937 187.835 188.533 188.504C189.007 188.594 189.488 188.638 189.971 188.636C193.206 188.636 196.297 186.7 198.935 184.882C202.505 182.421 204.513 178.09 206.449 173.909C208.044 170.47 209.547 167.228 211.811 164.997C213.865 162.982 215.46 161.552 216.871 160.292C220.572 156.964 222.613 155.134 226.498 148.394C233.559 136.135 231.38 128.575 229.563 124.165L238.855 122.931L244.762 122.13C246.107 121.946 246.882 121.841 247.341 121.736H247.308L311.057 116.407C315.73 128.023 315.651 133.47 314.188 142.35L243.666 148.958C243.409 148.98 243.17 149.102 243.003 149.299C242.836 149.496 242.753 149.751 242.773 150.008C242.839 151.137 243.115 190.697 243.246 211.448C243.692 221.442 242.353 222.965 228.939 227.854C218.347 231.713 205.878 233.518 189.747 233.518Z" fill="#BAAB88"/>
<path d="M310.454 117.464C314.634 128.062 314.673 133.372 313.387 141.457L243.62 148.019C243.109 148.066 242.637 148.311 242.303 148.7C241.97 149.09 241.802 149.595 241.835 150.107C241.907 151.577 242.202 194.923 242.307 211.5V211.572C242.727 220.97 241.579 222.263 228.651 226.961C218.15 230.781 205.766 232.566 189.747 232.566C170.269 232.566 156.179 231.254 144.065 228.333C137.686 226.798 135.245 225.708 134.037 223.772C132.607 221.508 132.534 217.36 132.534 210.771V161.9C132.534 161.378 132.327 160.877 131.958 160.507C131.588 160.138 131.088 159.931 130.566 159.931H130.401L50.5341 166.585C50.265 166.585 50.0092 166.625 49.7795 166.625C49.6111 166.633 49.4425 166.633 49.2741 166.625C51.6039 158.467 50.9804 150.362 47.3054 141.142C47.2148 140.931 47.1465 140.711 47.1019 140.486C47.9541 140.225 48.8364 140.075 49.7269 140.04L149.63 130.858H149.663C150.916 130.72 152.137 130.025 153.83 129.06C154.44 128.712 155.143 128.325 155.845 127.938C165.505 130.688 178.157 132.204 191.703 132.204C195.64 132.204 199.578 132.072 203.424 131.81C200.523 136.214 196.474 141.93 192.543 147.475C182.837 161.178 176.904 169.716 176.34 172.813C175.585 176.935 176.163 180.504 178.053 183.418C181.091 188.097 186.046 189.023 188.428 189.469C188.961 189.567 189.501 189.615 190.043 189.614C193.56 189.614 196.802 187.586 199.565 185.676C203.358 183.051 205.419 178.615 207.44 174.309C208.995 170.956 210.465 167.793 212.605 165.686C214.633 163.718 216.221 162.267 217.625 161.007C221.281 157.726 223.492 155.757 227.469 148.873C234.176 137.231 232.785 129.664 231.052 124.959C233.179 124.683 236.178 124.302 239.105 123.889L245.011 123.095L246.914 122.826C247.131 122.793 247.348 122.766 247.571 122.727L310.572 117.477L310.454 117.464ZM311.727 115.384L247.255 120.765C247.255 120.824 230.98 122.983 228.178 123.338C230.015 127.584 233.172 134.881 225.677 147.895C220.427 157.01 218.636 156.932 211.154 164.301C205.904 169.492 204.539 179.855 198.41 184.075C195.903 185.801 192.983 187.658 190.003 187.658C189.583 187.66 189.163 187.622 188.75 187.546C185.862 187.008 182.075 186.076 179.667 182.362C177.875 179.599 177.646 176.423 178.236 173.174C179.07 168.58 197.872 144.036 205.891 131.574C206.08 131.286 206.209 130.964 206.269 130.625C206.329 130.287 206.318 129.939 206.239 129.605C201.645 130.012 196.73 130.228 191.663 130.228C177.521 130.228 164.757 128.535 155.569 125.818C152.635 127.308 150.7 128.752 149.381 128.896L49.4776 138.031C46.1963 138.333 44.2274 138.793 45.4218 141.844C48.9919 150.822 49.5038 158.599 47.2528 166.283C46.7409 168.029 48.0141 168.593 49.7138 168.593C50.0317 168.592 50.3494 168.574 50.6655 168.541L130.598 161.867V210.739C130.598 225.282 131.077 227.185 143.631 230.216C157.538 233.57 173.164 234.502 189.78 234.502C206.397 234.502 218.787 232.618 229.353 228.779C242.616 223.962 244.788 222.177 244.309 211.454C244.309 211.454 243.922 151.11 243.836 149.949L315.113 143.275C316.78 133.496 316.846 127.767 311.773 115.384H311.727Z" fill="#F3BB1C"/>
<path d="M189.747 236.136C169.974 236.136 155.621 234.824 143.218 231.811C129.811 228.576 128.925 226.148 128.925 210.739V164.722C128.925 164.46 128.821 164.21 128.636 164.026C128.452 163.841 128.201 163.737 127.94 163.737H127.862L50.8426 170.175C50.4808 170.214 50.117 170.233 49.7531 170.234C48.0468 170.234 46.8196 169.755 46.1174 168.816C45.816 168.386 45.6221 167.89 45.5525 167.369C45.4828 166.848 45.5394 166.319 45.7172 165.824C47.8894 158.395 47.325 150.973 43.9387 142.448C43.2825 140.873 43.2825 139.56 43.9387 138.51C45.0019 136.771 47.4233 136.541 49.3593 136.371L142.956 128.332L143.796 128.253C145.829 128.133 147.847 127.816 149.82 127.308C150.75 126.948 151.61 126.429 152.36 125.772C162.329 129.316 175.447 131.186 190.364 131.186C191.46 131.186 191.992 131.187 192.543 131.154C186.079 140.945 177.79 152.298 172.461 159.307C163.93 170.503 164.133 184.527 169.652 190.604L179.706 200.448C179.743 200.483 179.782 200.513 179.824 200.54C182.672 202.588 185.475 203.625 188.153 203.625C195.286 203.625 200.3 196.563 204.822 189.325C211.345 178.903 217.107 173.955 222.678 169.178C228.834 163.895 234.649 158.907 240.135 147.18C245.326 136.076 243.534 127.754 242.859 124.624C242.813 124.427 242.773 124.25 242.747 124.099C242.736 124.047 242.72 123.997 242.701 123.948L242.005 122.097C248.463 120.896 286.631 116.519 312.803 113.645L313.262 114.76C318.571 127.735 318.368 133.792 316.695 143.55L316.485 144.791L246.37 151.353C246.124 151.376 245.895 151.491 245.73 151.675C245.565 151.858 245.474 152.097 245.477 152.344C245.615 163.823 245.904 209.439 245.917 211.408C246.429 223.116 243.338 225.446 229.884 230.335C218.951 234.292 206.2 236.136 189.747 236.136Z" fill="#E2DDD0"/>
<path d="M312.173 114.708L312.35 115.134C317.601 127.931 317.403 133.569 315.723 143.386L315.638 143.878L246.278 150.376C245.788 150.422 245.333 150.649 245.003 151.013C244.673 151.378 244.49 151.853 244.493 152.344C244.63 163.823 244.919 209.439 244.933 211.408V211.48C245.188 217.301 244.493 220.451 242.458 222.729C240.24 225.203 236.211 226.981 229.543 229.403C218.721 233.34 206.082 235.158 189.747 235.158C170.059 235.158 155.773 233.846 143.448 230.86C130.664 227.775 129.909 225.688 129.909 210.745V164.728C129.909 164.206 129.702 163.705 129.332 163.336C128.963 162.967 128.463 162.759 127.94 162.759H127.776L50.7639 169.197H50.7245C50.4018 169.231 50.0777 169.249 49.7532 169.25C48.3751 169.25 47.417 168.902 46.9051 168.226C46.6956 167.918 46.5639 167.563 46.5216 167.193C46.4793 166.822 46.5277 166.447 46.6623 166.1C48.9001 158.454 48.329 150.822 44.8508 142.087C44.0895 140.171 44.6081 139.331 44.7787 139.055C45.5859 137.743 47.7319 137.533 49.4382 137.375L143.067 129.336H143.113C143.316 129.336 143.586 129.29 143.901 129.264C145.998 129.134 148.079 128.807 150.116 128.286C151.003 127.972 151.829 127.506 152.557 126.908C162.565 130.366 175.611 132.197 190.39 132.197H190.712C184.425 141.601 176.74 152.115 171.68 158.736C167.525 164.032 165.114 170.487 164.783 177.21C164.553 182.92 166.095 188.183 168.924 191.293C168.951 191.323 168.979 191.352 169.009 191.379L179.017 201.151C179.089 201.219 179.166 201.283 179.247 201.341C182.272 203.513 185.265 204.622 188.146 204.622C195.791 204.622 200.989 197.331 205.662 189.863C212.099 179.566 217.803 174.671 223.322 169.939C229.563 164.584 235.456 159.531 241.041 147.626C246.37 136.227 244.526 127.669 243.83 124.447C243.791 124.256 243.751 124.086 243.725 123.941C243.703 123.837 243.675 123.734 243.64 123.633L243.364 122.898C252.125 121.507 287.426 117.464 312.186 114.74L312.173 114.708ZM313.446 112.621C313.446 112.621 241.132 120.561 240.719 121.467L241.795 124.322C242.268 126.711 244.657 135.242 239.256 146.793C229.057 168.613 218.013 166.441 204.001 188.839C199.762 195.618 194.873 202.673 188.159 202.673C185.816 202.673 183.25 201.814 180.409 199.773L170.381 189.974C165.617 184.724 164.475 171.422 173.242 159.937C179.227 152.062 187.962 140.046 194.42 130.13C192.451 130.196 192.398 130.235 190.364 130.235C174.358 130.235 161.416 128.069 152.183 124.696C151.404 125.399 150.518 125.973 149.558 126.396C147.363 126.927 145.125 127.256 142.87 127.38L49.2742 135.419C47.2266 135.61 44.4243 135.872 43.0986 138.044C42.3045 139.357 42.2782 140.958 43.0198 142.835C46.3011 151.137 46.8789 158.362 44.7723 165.568C44.5497 166.209 44.4839 166.894 44.581 167.565C44.6781 168.237 44.9349 168.875 45.3299 169.427C46.2289 170.628 47.7188 171.238 49.7532 171.238C50.1455 171.238 50.5376 171.219 50.928 171.179L127.94 164.741V210.758C127.94 226.377 129.056 229.429 142.982 232.789C155.451 235.801 169.889 237.14 189.747 237.14C206.318 237.14 219.174 235.276 230.219 231.267C244 226.266 247.439 223.654 246.901 211.408C246.842 202.483 246.586 162.93 246.461 152.344L317.338 145.703L317.679 143.734C319.385 133.759 319.596 127.616 314.181 114.406L313.446 112.608V112.621Z" fill="#F3BB1C"/>
<path d="M41.5958 164.807C43.5646 158.198 43.0067 151.517 39.9289 143.806C39.6824 143.191 39.4935 142.554 39.3646 141.903L33.6681 142.284C33.5368 142.284 33.4124 142.33 33.2877 142.343L28.5625 132.683C28.3128 132.034 27.8162 131.511 27.1814 131.228C26.5466 130.945 25.8254 130.925 25.1761 131.173C23.8242 131.692 23.2073 133.798 23.2073 136.095L23.7258 142.914L7.81138 143.629C7.15386 143.638 6.52584 143.904 6.06209 144.37C5.59834 144.836 5.33594 145.466 5.33085 146.123C5.37678 147.357 5.98707 148.4 8.08055 148.748L16.1198 149.641C15.8638 150.061 16.448 150.106 16.238 150.559L3.05347 150.868C2.43738 150.978 1.88536 151.316 1.50702 151.815C1.12869 152.314 0.951804 152.936 1.0113 153.56C1.0708 154.183 1.36256 154.76 1.82843 155.178C2.29429 155.596 2.90025 155.824 3.52612 155.816L16.3559 156.387C16.3166 156.991 16.3166 156.282 16.3559 156.899L5.85573 157.916C5.28776 158.025 4.7839 158.35 4.44931 158.822C4.11473 159.293 3.97534 159.876 4.05998 160.448C4.14462 161.021 4.44684 161.538 4.9037 161.893C5.36055 162.247 5.93668 162.412 6.51199 162.352L17.4323 162.582C17.7079 163.199 18.0099 162.484 18.3709 163.041L10.7844 163.875C9.56378 164.091 8.11976 164.761 8.89415 166.854C9.55041 168.554 12.1756 168.646 14.0984 168.718L41.3401 167.97C41.2024 166.909 41.2894 165.831 41.5958 164.807Z" fill="white" stroke="#F3BB1C" stroke-width="1.96879" stroke-linecap="round" stroke-linejoin="round"/>
<path d="M163.936 437.386C159.953 437.362 155.976 437.072 152.032 436.519C151.402 436.432 150.791 436.32 150.201 436.185C139.845 433.77 136.262 423.401 137.305 414.193C137.962 408.372 138.86 404.231 140.12 401.16C140.176 401.019 140.21 400.871 140.219 400.72C140.324 398.246 142.903 339.931 142.916 334.149V333.493L145.856 262.098C145.866 261.868 145.816 261.64 145.71 261.436C145.604 261.233 145.446 261.06 145.253 260.936C139.747 257.405 136.229 250.751 135.225 242.069C137.248 242.771 139.308 243.367 141.394 243.854C154.198 246.945 168.904 248.316 189.084 248.316C206.147 248.316 219.41 246.347 230.895 242.206C234.201 241.076 237.425 239.717 240.542 238.138C240.286 247.818 237.339 255.378 232.181 259.532C232.019 259.662 231.889 259.828 231.804 260.017C231.718 260.207 231.679 260.414 231.689 260.621L235.213 331.117V331.531C235.213 336.348 235.318 358.582 235.417 376.393C235.417 376.741 235.555 377.074 235.801 377.321C236.047 377.567 236.381 377.705 236.729 377.705H237.182C244.906 377.705 251.941 386.328 253.188 397.34C253.949 404.002 252.991 408.845 250.189 412.566C246.212 417.849 238.527 420.533 227.358 420.533C223.374 420.506 219.397 420.214 215.453 419.66C214.84 419.582 214.231 419.472 213.629 419.332C203.273 416.91 199.69 406.541 200.733 397.34C201.324 392.09 202.098 388.304 203.155 385.337C203.207 385.194 203.233 385.043 203.234 384.891C203.155 371.405 202.977 339.241 202.977 331.937L199.808 268.496C199.792 268.159 199.647 267.84 199.403 267.606C199.158 267.373 198.833 267.243 198.495 267.243C195.214 267.315 191.821 267.328 187.765 267.328C185.029 267.328 182.089 267.328 179.234 267.282C178.895 267.282 178.568 267.413 178.324 267.648C178.079 267.883 177.935 268.204 177.921 268.542L175.205 334.549C175.139 342.011 173.551 374.496 172.579 393.199C172.571 393.376 172.597 393.552 172.658 393.718C172.719 393.884 172.813 394.036 172.934 394.164C173.055 394.293 173.202 394.397 173.364 394.468C173.526 394.539 173.702 394.576 173.879 394.578C181.557 394.656 188.54 403.28 189.787 414.207C190.541 420.874 189.59 425.711 186.781 429.438C182.784 434.675 175.106 437.386 163.936 437.386Z" fill="white"/>
<path d="M239.138 240.277C238.534 248.493 235.856 254.879 231.367 258.475C231.046 258.735 230.79 259.068 230.622 259.445C230.453 259.823 230.375 260.234 230.396 260.647L233.914 331.104V331.491C233.914 336.341 234.019 358.568 234.117 376.36C234.117 377.056 234.394 377.724 234.886 378.216C235.378 378.708 236.046 378.985 236.742 378.985H237.195C244.263 378.985 250.72 387.096 251.902 397.452C252.617 403.765 251.744 408.307 249.152 411.746C245.438 416.681 238.107 419.188 227.371 419.188C223.447 419.162 219.529 418.875 215.643 418.328C215.066 418.249 214.488 418.144 213.937 418.02C211.885 417.565 209.957 416.67 208.285 415.397C206.614 414.123 205.239 412.501 204.257 410.643C202.289 407.014 201.501 402.328 202.052 397.452C202.63 392.34 203.365 388.619 204.402 385.751C204.507 385.463 204.558 385.158 204.552 384.852C204.461 368.065 204.303 338.861 204.303 331.905V331.773L201.133 268.392C201.1 267.718 200.808 267.084 200.32 266.619C199.831 266.155 199.182 265.897 198.508 265.898H198.456C195.174 265.963 191.801 265.976 187.752 265.976C185.015 265.976 182.089 265.976 179.221 265.931H179.162C178.483 265.93 177.831 266.192 177.342 266.662C176.852 267.132 176.564 267.773 176.537 268.45L173.82 334.457V334.543C173.747 341.945 172.166 374.404 171.195 393.094C171.178 393.448 171.232 393.801 171.355 394.132C171.478 394.464 171.667 394.767 171.91 395.024C172.152 395.282 172.444 395.488 172.767 395.63C173.091 395.772 173.44 395.847 173.793 395.851C180.822 395.923 187.24 404.034 188.408 414.318C189.124 420.625 188.251 425.166 185.665 428.605C181.944 433.547 174.614 436.047 163.877 436.047C159.954 436.02 156.036 435.735 152.15 435.194C151.572 435.115 150.995 435.01 150.444 434.879C148.392 434.426 146.464 433.532 144.792 432.26C143.121 430.987 141.746 429.366 140.764 427.509C138.795 423.873 138.007 419.188 138.559 414.318C139.215 408.615 140.075 404.586 141.282 401.632C141.395 401.352 141.459 401.055 141.472 400.753C141.584 398.279 144.157 340.101 144.176 334.149V333.493L147.11 262.091C147.129 261.634 147.028 261.179 146.818 260.773C146.607 260.367 146.294 260.022 145.909 259.775C141.184 256.736 138.034 251.191 136.774 243.919C138.04 244.307 139.451 244.687 141.033 245.068C153.941 248.185 168.747 249.57 189.032 249.57C206.226 249.57 219.653 247.601 231.295 243.381C234.242 242.305 236.821 241.307 239.072 240.257L239.138 240.277ZM241.822 235.775C238.98 237.626 235.22 239.161 230.396 240.914C219.056 245.028 205.911 246.945 189.051 246.945C168.976 246.945 154.368 245.58 141.669 242.521C138.944 241.912 136.277 241.069 133.696 240.001C134.385 250.265 138.29 257.996 144.511 261.98L141.571 333.407V334.064C141.571 339.891 138.874 400.589 138.874 400.589C137.417 404.139 136.564 408.753 135.973 413.97C134.772 424.542 139.221 434.898 149.866 437.386C150.522 437.53 151.146 437.648 151.835 437.74C155.836 438.298 159.87 438.592 163.91 438.619C173.039 438.619 182.751 436.835 187.791 430.134C191.197 425.612 191.729 419.909 191.073 413.97C189.721 402.065 182.089 393.252 173.879 393.173C174.732 376.163 176.399 342.11 176.504 334.51L179.214 268.503C182.01 268.542 184.878 268.549 187.791 268.549C191.48 268.549 195.076 268.549 198.548 268.464L201.718 331.846C201.718 338.677 201.868 367.415 201.967 384.806C200.759 388.192 199.998 392.405 199.48 397.098C198.279 407.677 202.761 418.026 213.379 420.513C214.029 420.667 214.686 420.787 215.348 420.874C219.349 421.432 223.383 421.726 227.423 421.754C236.552 421.754 246.258 419.962 251.305 413.262C254.711 408.74 255.242 403.037 254.586 397.098C253.228 385.14 245.529 376.301 237.274 376.301H236.821C236.729 358.792 236.611 336.334 236.617 331.452V331.071L233.093 260.542C238.705 256.027 241.966 247.68 241.966 236.707V235.821L241.822 235.775Z" fill="#F3BB1C"/>
<path d="M350.997 121.979C350.969 121.387 350.706 120.83 350.266 120.431C349.827 120.032 349.247 119.824 348.655 119.853L335.129 120.758C335.129 120.483 335.037 120.358 334.978 119.945L343.391 117.615C345.537 117.143 346.089 116.027 345.839 114.819C345.781 114.478 345.656 114.151 345.472 113.858C345.287 113.565 345.046 113.312 344.763 113.113C344.48 112.913 344.161 112.772 343.823 112.696C343.485 112.621 343.135 112.613 342.794 112.673L329.925 113.92C329.557 113.736 329.177 113.566 328.796 113.408L328.317 105.205C328.205 103.597 327.759 102.383 326.348 102.062C324.937 101.74 323.979 102.718 323.205 104.03C323.205 104.03 318.998 113.953 318.723 113.979L316.563 114.938C320.836 125.812 321.321 132.217 320.114 140.86L322.227 140.663C324.412 140.459 344.855 137.611 344.855 137.611C346.226 137.401 347.113 136.653 347.132 135.413C347.138 135.119 347.086 134.826 346.979 134.552C346.871 134.279 346.711 134.029 346.506 133.817C346.302 133.605 346.058 133.436 345.788 133.319C345.518 133.202 345.228 133.14 344.934 133.136L335.825 132.906C335.861 132.689 335.874 132.469 335.864 132.25L346.929 131.233C347.223 131.231 347.513 131.17 347.784 131.056C348.054 130.941 348.3 130.775 348.506 130.566C348.713 130.356 348.876 130.108 348.986 129.836C349.096 129.564 349.152 129.272 349.15 128.978C349.148 128.684 349.088 128.394 348.974 128.123C348.859 127.852 348.693 127.607 348.483 127.401C348.274 127.194 348.026 127.031 347.754 126.921C347.481 126.81 347.19 126.755 346.896 126.757L336.638 126.448C336.603 126.244 336.579 126.038 336.566 125.831L348.865 124.322C349.159 124.309 349.447 124.237 349.713 124.112C349.98 123.987 350.219 123.811 350.417 123.593C350.615 123.375 350.768 123.121 350.868 122.844C350.968 122.567 351.012 122.273 350.997 121.979Z" fill="white" stroke="#F3BB1C" stroke-width="1.96879" stroke-linecap="round" stroke-linejoin="round"/>
<path d="M193.98 212.32V247.804" stroke="#F3BB1C" stroke-width="1.96879" stroke-miterlimit="10"/>
<path d="M189.747 246.964C169.784 246.964 155.267 245.612 142.673 242.574C127.914 239.01 126.628 235.519 126.628 219.27V168.265C126.628 167.743 126.42 167.242 126.051 166.873C125.682 166.504 125.181 166.296 124.659 166.296H124.502L117.814 166.854H117.69L92.7516 168.928L66.7635 171.094H66.5995L51.0001 172.406C50.5932 172.446 50.1403 172.472 49.7202 172.472C46.6424 172.472 45.0478 171.199 44.2471 170.136C43.7343 169.418 43.3977 168.589 43.2643 167.717C43.1309 166.845 43.2046 165.954 43.4793 165.115C45.5006 158.211 44.9559 151.255 41.773 143.242C40.6377 140.394 41.2416 138.425 41.9438 137.277C43.6173 134.56 46.9246 134.251 49.1165 134.048L99.1829 129.67H99.2681C101.066 129.447 133.151 125.444 135.29 125.162C139.884 124.545 140.134 120.102 140.337 116.539C140.462 114.353 140.593 112.102 141.578 111C141.826 110.71 142.136 110.48 142.484 110.324C142.832 110.169 143.211 110.092 143.592 110.101C143.967 110.102 144.34 110.163 144.695 110.284C147.274 111.387 157.479 112.004 168.616 112.581C170.886 112.706 172.684 112.798 173.754 112.877C174.41 112.923 175.185 112.929 175.966 112.936C178.203 112.936 180.743 112.936 181.839 114.11C182.101 114.428 182.294 114.795 182.406 115.191C182.519 115.586 182.55 116 182.496 116.407C182.496 116.683 182.496 117.064 182.496 117.516C182.506 119.479 182.357 121.439 182.049 123.377C180.08 132.565 174.141 154.595 161.403 161.624C156.488 164.341 150.995 170.844 150.004 178.03C149.216 183.753 151.316 189.272 156.114 193.984L174.489 210.476C174.557 210.54 174.632 210.595 174.712 210.64C180.035 213.699 183.467 214.945 186.525 214.945C190.646 214.945 193.856 212.734 198.764 209.124C212.047 199.353 218.203 185.269 223.144 173.955C226.17 167.031 228.782 161.053 232.07 158.966C247.853 148.965 257.434 138.031 259.062 128.181C259.472 126.05 259.416 123.855 258.897 121.748C258.378 119.641 257.409 117.671 256.056 115.974C255.928 115.824 255.818 115.658 255.728 115.482C255.976 115.397 256.234 115.343 256.496 115.325L306.673 111.387H306.903C307.461 111.334 308.098 111.275 308.793 111.275C311.182 111.275 312.908 112.024 314.201 113.631L315.185 115.16C319.707 125.359 320.508 134.192 317.718 142.98C317.213 144.555 315.75 147.186 311.458 147.186H311.327L249.52 153.342C249.035 153.394 248.586 153.624 248.261 153.988C247.936 154.351 247.758 154.823 247.761 155.311C247.846 164.019 247.977 184.842 248.155 217.117V219.854C248.726 233.216 244.066 236.116 230.606 241.005C219.476 245.1 206.475 246.964 189.747 246.964Z" fill="white"/>
<path d="M143.625 111.459C143.836 111.458 144.046 111.489 144.248 111.551C146.873 112.627 154.821 113.218 168.576 113.94C170.755 114.058 172.638 114.156 173.695 114.229C174.423 114.281 175.185 114.288 175.992 114.294C177.672 114.294 180.212 114.294 180.921 115.062C181.165 115.453 181.265 115.918 181.203 116.375C181.203 116.663 181.203 117.031 181.203 117.516C181.211 119.395 181.072 121.271 180.789 123.128C179.286 130.137 173.406 153.545 160.793 160.502C155.589 163.376 149.774 170.267 148.724 177.879C148.134 182.165 148.777 188.609 155.214 194.942C155.245 194.969 155.273 194.998 155.3 195.028L173.675 211.474C173.812 211.596 173.962 211.704 174.121 211.795C179.66 214.978 183.309 216.278 186.59 216.278C191.027 216.278 194.466 213.98 199.604 210.2C213.176 200.219 219.673 185.355 224.411 174.506C227.351 167.773 229.891 161.965 232.837 160.069C248.942 149.864 258.734 138.609 260.4 128.384C261.175 124.278 260.359 120.032 258.117 116.506L306.824 112.68H306.857H307.074C307.606 112.627 308.203 112.575 308.839 112.575C310.808 112.575 312.121 113.133 313.184 114.393L314.07 115.771C318.421 125.615 319.195 134.146 316.511 142.573C315.815 144.758 314.129 145.854 311.504 145.854H311.241L249.441 152.01C248.626 152.084 247.87 152.464 247.324 153.072C246.777 153.681 246.481 154.473 246.494 155.291C246.573 163.868 246.704 184.495 246.881 216.593V219.828V219.926C247.15 226.194 246.225 229.993 243.784 232.645C241.343 235.296 236.913 237.298 230.199 239.739C219.154 243.749 206.298 245.612 189.728 245.612C169.876 245.612 155.451 244.3 142.962 241.261C135.592 239.483 132.022 237.704 130.224 234.915C128.288 231.923 127.921 227.093 127.921 219.231V168.226C127.921 167.356 127.575 166.521 126.96 165.906C126.344 165.29 125.51 164.945 124.639 164.945H124.37L117.69 165.502H117.506L97.621 167.163L92.7253 167.57H92.64L66.6519 169.735H66.501H66.4091L50.8885 171.048H50.8359C50.4947 171.081 50.0878 171.101 49.7138 171.101C47.6793 171.101 46.1895 170.49 45.2904 169.289C44.9013 168.735 44.6484 168.097 44.5515 167.426C44.4546 166.756 44.5167 166.072 44.7328 165.43C46.8394 158.211 46.2882 150.992 42.9807 142.697C42.2391 140.82 42.2651 139.206 43.0592 137.907C44.2798 135.938 46.6753 135.531 49.2216 135.282L65.674 133.838H65.7727L99.2879 130.904H99.4388C101.408 130.655 133.322 126.678 135.454 126.389C141.125 125.628 141.433 120.155 141.643 116.545C141.748 114.681 141.873 112.568 142.549 111.807C142.676 111.658 142.836 111.539 143.015 111.459C143.194 111.38 143.389 111.342 143.586 111.348L143.625 111.459ZM143.586 108.723C143.021 108.709 142.461 108.82 141.944 109.046C141.427 109.273 140.965 109.611 140.593 110.035C137.463 113.533 141.098 122.963 135.107 123.764C132.935 124.059 99.0649 128.286 99.0649 128.286L65.4445 131.226L48.9918 132.663C46.6883 132.88 42.8297 133.234 40.8215 136.515C39.9618 137.92 39.2134 140.295 40.5456 143.649C43.6169 151.38 44.1485 158.087 42.2126 164.649C41.8813 165.684 41.7973 166.781 41.9671 167.853C42.1369 168.926 42.556 169.943 43.1905 170.825C44.1684 172.137 46.0912 173.686 49.7138 173.686C50.1785 173.686 50.6429 173.662 51.1051 173.614L66.7045 172.301H66.8686L92.8566 170.136L97.8244 169.716L117.893 168.049L124.574 167.491H124.626C124.8 167.491 124.967 167.56 125.09 167.683C125.213 167.806 125.282 167.973 125.282 168.147V219.152C125.282 235.742 126.857 239.995 142.345 243.735C155.037 246.794 169.652 248.159 189.721 248.159C206.606 248.159 219.745 246.243 231.065 242.128C244.906 237.101 250.097 233.865 249.48 219.736C249.48 217.38 249.218 170.149 249.073 155.186C249.072 155.025 249.13 154.869 249.237 154.748C249.343 154.627 249.491 154.549 249.651 154.53L311.458 148.374C315.894 148.374 318.132 145.88 318.965 143.255C322.247 132.84 320.278 123.311 316.34 114.38L315.264 112.706C314.492 111.744 313.502 110.979 312.375 110.474C311.249 109.97 310.019 109.741 308.787 109.805C308.043 109.814 307.301 109.86 306.562 109.943L256.358 113.881C254.133 114.104 253.857 115.193 255.045 116.657C262.336 125.687 256.765 141.595 231.38 157.719C222.317 163.462 219.679 191.983 197.997 207.93C193.206 211.454 190.2 213.495 186.538 213.495C183.631 213.495 180.31 212.182 175.349 209.361L156.973 192.915C144.281 180.406 155.07 166.454 161.981 162.634C176.235 154.759 182.075 129.113 183.276 123.515C183.762 121.244 183.716 117.608 183.775 116.296C184.024 110.508 177.567 111.702 173.833 111.4C168.917 111.046 148.508 110.331 145.18 108.906C144.665 108.72 144.121 108.625 143.573 108.624L143.586 108.723Z" fill="#F3BB1C"/>
</svg>
