<svg width="50" height="50" viewBox="0 0 50 50" fill="none" xmlns="http://www.w3.org/2000/svg">
<path d="M6.04478 46.3433C5.67165 46.3433 5.22389 46.194 5.00001 45.8955C4.40299 45.2985 4.40299 44.3283 5.00001 43.7313L7.16419 41.5671C7.46269 41.2686 7.83583 41.1194 8.20896 41.1194C8.5821 41.1194 9.02986 41.2686 9.25374 41.5671C9.55225 41.8657 9.7015 42.3134 9.7015 42.6866C9.7015 43.0597 9.55225 43.5074 9.25374 43.7313L7.08956 45.8955C6.79105 46.194 6.41792 46.3433 6.04478 46.3433Z" fill="white"/>
<path d="M8.13431 41.9403C8.35819 41.9403 8.50744 42.0149 8.6567 42.1642C8.9552 42.4627 8.9552 42.9104 8.6567 43.2089L6.49252 45.3731C6.34326 45.5224 6.19401 45.597 5.97013 45.597C5.74625 45.597 5.67162 45.5224 5.52237 45.3731C5.22386 45.0746 5.22386 44.6268 5.52237 44.3283L7.68655 42.1642C7.76117 42.0149 7.98505 41.9403 8.13431 41.9403ZM8.13431 40.3731C7.53729 40.3731 6.94028 40.597 6.49252 41.0448L4.32834 43.2089C3.9552 43.6567 3.73132 44.1791 3.73132 44.8507C3.73132 45.5224 3.9552 46.0448 4.40297 46.4925C4.85073 46.9403 5.37311 47.1642 6.04476 47.1642C6.64177 47.1642 7.23879 46.9403 7.68655 46.4925L9.85073 44.3283C10.7462 43.4328 10.7462 42.0149 9.85073 41.1194C9.32834 40.597 8.80595 40.3731 8.13431 40.3731Z" fill="black"/>
<path d="M12.612 45.1493C11.4926 45.1493 9.70155 43.7314 8.35826 42.3881C7.23886 41.2687 4.70155 38.5075 5.89558 37.3135C6.04483 37.1642 6.26871 37.015 6.71647 37.015C7.83588 37.015 9.62692 38.4329 10.9702 39.7761C11.8657 40.6717 12.612 41.6418 13.1344 42.4627C13.3583 42.9105 14.1792 44.1791 13.4329 44.9254C13.2836 45 13.0598 45.1493 12.612 45.1493Z" fill="white"/>
<path d="M6.71644 37.7612C7.38808 37.7612 8.95525 38.806 10.4478 40.2985C12.2388 42.0896 13.2836 43.8806 12.9105 44.3284C12.8358 44.403 12.7612 44.403 12.612 44.403C11.9403 44.403 10.3732 43.3582 8.88062 41.8657C7.08957 40.0746 6.0448 38.2836 6.41793 37.8358C6.49256 37.7612 6.64181 37.7612 6.71644 37.7612ZM6.71644 36.194C6.19405 36.194 5.67166 36.4179 5.37316 36.7164C4.55226 37.5373 4.62689 38.6567 5.52241 40.1493C6.0448 41.0448 6.86569 42.0149 7.76122 42.9851C8.65674 43.8806 10.8955 45.9701 12.612 45.9701C13.1344 45.9701 13.6567 45.7463 13.9552 45.4478C15.5224 43.8806 13.5075 41.194 11.4926 39.2537C10.6717 38.2836 8.35823 36.194 6.71644 36.194Z" fill="black"/>
<path d="M45.5223 9.32831C45.5223 9.32831 42.0895 17.1641 39.8507 21.0447L41.4179 22.6119C41.3432 22.6119 48.0597 11.6417 45.5223 9.32831Z" fill="black"/>
<path d="M40.1493 24.1045C39.7762 24.1045 39.3284 24.0299 38.9553 23.8806C37.9105 23.4328 37.3135 22.6119 37.1642 21.4179C36.5672 17.5373 41.418 10.597 43.1344 9.17911C43.806 8.65672 44.403 8.35822 45.0001 8.35822C45.2239 8.35822 45.3732 8.43284 45.5971 8.50747C46.2687 8.80598 46.7165 9.62687 46.7911 10.7463C46.9404 12.8358 45.5224 19.9254 42.7612 22.8358C41.9404 23.6567 41.0448 24.1045 40.1493 24.1045ZM45.2986 9.77613C45.2239 9.77613 45.0001 9.85075 44.7762 10C43.8806 10.7463 40.2239 18.209 40.5971 20.8209C40.6717 21.194 40.7463 21.4179 40.9702 21.4925C41.0448 21.4925 41.0448 21.4925 41.1195 21.4925C41.2687 21.4925 41.4926 21.3433 41.7911 21.1194C43.7314 19.0299 45.5971 11.3433 45.5224 10.2985C45.4478 10 45.2986 9.85075 45.2986 9.77613Z" fill="white"/>
<path d="M45 8.88061C45.1492 8.88061 45.2985 8.88061 45.3731 8.95524C45.8209 9.10449 46.194 9.70151 46.194 10.7463C46.3433 13.2836 44.0298 23.5821 40.0746 23.5821C39.7761 23.5821 39.403 23.5075 39.1045 23.3582C34.5522 21.4179 41.2686 11.3433 43.4328 9.55225C44.0298 9.10449 44.6268 8.88061 45 8.88061ZM41.1194 22.0896C43.5074 22.0896 46.0448 11.7911 45.9701 10.2985C45.8955 9.70151 45.7463 9.403 45.5224 9.32837C45.4477 9.32837 45.3731 9.25375 45.2985 9.25375C45.0746 9.25375 44.7761 9.32837 44.4776 9.62688C43.2836 10.597 38.2836 20.8955 40.8209 22.0149C40.8955 22.0149 40.9701 22.0896 41.1194 22.0896ZM45 7.91046C44.3283 7.91046 43.5821 8.20897 42.8358 8.80598C40.9701 10.2985 36.0448 17.3134 36.6418 21.4926C36.8657 22.8358 37.5373 23.806 38.7313 24.3284C39.1791 24.5523 39.7015 24.6269 40.1492 24.6269C41.194 24.6269 42.2388 24.1045 43.1343 23.1343C45.9701 20.0746 47.4627 12.9105 47.3134 10.6717C47.2388 9.32837 46.7164 8.35822 45.8209 7.98509C45.5224 7.91046 45.2985 7.91046 45 7.91046ZM41.194 20.9702C41.0448 20.5224 41.0448 19.0299 42.388 15.7463C43.3582 13.2836 44.403 11.4179 44.9254 10.6717C44.8507 11.5672 44.3283 13.7314 43.5821 16.1194C42.4627 19.4776 41.5671 20.7463 41.194 20.9702Z" fill="black"/>
<path d="M10.8955 41.9403C10.6716 41.9403 10.5224 41.8656 10.3731 41.7164L9.17908 40.5224C9.02983 40.2985 8.9552 40.1492 8.9552 39.9253C8.9552 39.7015 9.02983 39.5522 9.17908 39.403L38.1343 10.3731C38.2836 10.2239 38.5074 10.1492 38.6567 10.1492C38.8806 10.1492 39.0298 10.2239 39.1791 10.3731L40.3731 11.5671C40.6716 11.8656 40.6716 12.388 40.3731 12.6865L11.4925 41.7164C11.3433 41.8656 11.1194 41.9403 10.8955 41.9403Z" fill="white"/>
<path d="M38.6567 10.8955L39.8507 12.0895L10.8955 41.1194L9.70144 39.9253L38.6567 10.8955ZM38.6567 9.40295C38.2835 9.40295 37.8358 9.55221 37.5373 9.85072L8.58204 38.8059C8.28353 39.1044 8.13428 39.4776 8.13428 39.9253C8.13428 40.3731 8.28353 40.7462 8.58204 41.0447L9.77607 42.2388C10.0746 42.5373 10.4477 42.6865 10.8955 42.6865C11.3432 42.6865 11.7164 42.5373 12.0149 42.2388L41.0447 13.2836C41.3432 12.985 41.4925 12.6119 41.4925 12.1641C41.4925 11.7164 41.3432 11.3433 41.0447 11.0447L39.8507 9.85072C39.4776 9.55221 39.1044 9.40295 38.6567 9.40295Z" fill="black"/>
<path d="M36.1194 17.7612C35.8955 17.7612 35.7463 17.6866 35.597 17.5373L33.2836 15.2239C32.9851 14.9254 32.9851 14.403 33.2836 14.1045L42.5373 4.70148C42.6866 4.55223 42.9104 4.4776 43.1343 4.4776C43.3582 4.4776 43.5075 4.55223 43.6567 4.70148L45.9701 7.01491C46.1194 7.16417 46.194 7.38805 46.194 7.5373C46.194 7.68656 46.1194 8.05969 45.9701 8.20894L36.6418 17.5373C36.4925 17.6866 36.3433 17.7612 36.1194 17.7612Z" fill="white"/>
<path d="M43.1343 5.29849L45.4477 7.61192L36.1194 16.9403L33.8059 14.6268L43.1343 5.29849ZM43.1343 3.73132C42.6865 3.73132 42.3134 3.88058 42.0149 4.17908L32.6865 13.5074C32.388 13.806 32.2388 14.1791 32.2388 14.6268C32.2388 15.0746 32.388 15.4477 32.6865 15.7463L35 18.0597C35.2985 18.3582 35.6716 18.5074 36.1194 18.5074C36.5671 18.5074 36.9403 18.3582 37.2388 18.0597L46.5671 8.73132C47.1641 8.13431 47.1641 7.16416 46.5671 6.56714L44.2537 4.25371C43.8806 3.88058 43.5074 3.73132 43.1343 3.73132Z" fill="black"/>
<path d="M23.3582 31.4179C23.1343 31.4179 22.985 31.3433 22.8358 31.194L19.6268 27.9851C19.4776 27.8358 19.403 27.6119 19.403 27.4627C19.403 27.3134 19.4776 27.0895 19.6268 26.9403L20.6716 25.8955C20.8209 25.7463 21.0447 25.6716 21.194 25.6716C21.3433 25.6716 21.5671 25.7463 21.7164 25.8955L24.9253 29.1045C25.0746 29.2537 25.1492 29.4776 25.1492 29.6269C25.1492 29.7761 25.0746 30 24.9253 30.1492L23.8806 31.194C23.8059 31.3433 23.5821 31.4179 23.3582 31.4179Z" fill="white"/>
<path d="M21.2687 26.4179L24.4776 29.6268L23.4329 30.6716L20.2239 27.4626L21.2687 26.4179ZM21.2687 24.8507C20.8209 24.8507 20.4478 25 20.1493 25.2985L19.1045 26.3432C18.5075 26.9403 18.5075 27.9104 19.1045 28.5074L22.3135 31.7164C22.612 32.0149 22.9851 32.1641 23.4329 32.1641C23.8806 32.1641 24.2538 32.0149 24.5523 31.7164L25.597 30.6716C26.1941 30.0746 26.1941 29.1044 25.597 28.5074L22.3881 25.2985C22.0149 25 21.6418 24.8507 21.2687 24.8507Z" fill="black"/>
</svg>
