<svg width="50" height="50" viewBox="0 0 50 50" fill="none" xmlns="http://www.w3.org/2000/svg">
<path d="M35.0001 36.7911C31.8657 36.7911 26.3434 36.4926 25.6717 36.418C22.7613 36.2687 20.821 35.5224 19.7016 34.1792C18.1344 32.3135 18.2837 29.3284 18.7314 25.5971C18.8807 24.2538 19.7762 17.3881 20.0747 15.1493C20.0747 15.0001 20.3732 14.5523 20.5225 14.2538C20.821 13.7314 21.1195 13.209 21.1941 12.7613C21.418 11.3433 21.4926 10.1493 21.6419 8.7314C21.6419 8.20901 22.1643 7.68663 22.8359 7.68663C22.9105 7.68663 22.9851 7.68663 22.9851 7.68663L23.8807 7.83588C25.7463 8.05976 27.3881 8.20901 29.1046 8.20901C30.6717 8.20901 32.3881 8.13439 34.4777 7.91051L37.0896 7.612C37.1643 7.612 37.2389 7.68663 37.2389 7.68663C37.2389 7.68663 37.3135 7.76125 37.3135 7.83588C37.1643 10.1493 36.9404 11.4926 36.7911 12.7613C36.6419 13.6568 36.5672 14.5523 36.4926 15.6717C36.4926 16.0448 36.7165 16.418 37.1643 16.4926C38.6568 16.7165 41.7165 17.3881 43.0598 18.0598C44.6269 18.806 47.2389 20.5224 47.7613 24.0299C48.0598 26.3433 47.8359 29.8508 46.3434 31.9404C45.5971 32.9851 42.7613 36.2687 36.7165 36.8657C36.2687 36.7911 35.7463 36.7911 35.0001 36.7911Z" fill="white"/>
<path d="M36.4926 8.35824C36.3434 10.2985 36.1941 11.4926 36.0448 12.5373C35.8956 13.4329 35.821 14.3284 35.7463 15.4478C35.6717 16.2687 36.2687 16.9403 37.015 17.015C38.6568 17.2388 41.5672 17.9105 42.6866 18.5075C44.4031 19.3284 46.5672 20.8956 46.9404 23.8806C47.2389 26.0448 47.0896 29.3284 45.5971 31.2687C44.9254 32.2388 42.2389 35.3732 36.4926 35.8956C36.2687 35.8956 35.821 35.9702 34.9254 35.9702C31.8657 35.9702 26.7165 35.6717 25.6717 35.5971C22.9851 35.4478 21.1941 34.7762 20.224 33.6568C18.806 32.015 19.0299 29.1791 19.4031 25.6717C19.5523 24.403 20.3732 17.7612 20.7463 15.2985C20.821 15.1493 20.9702 14.8508 21.1195 14.6269C21.4926 14.0299 21.7911 13.5075 21.8657 12.9105C22.0896 11.4926 22.1643 10.2239 22.3135 8.88063C22.3135 8.58212 22.5374 8.43287 22.8359 8.43287H22.9105L23.806 8.58212C25.6717 8.806 27.3135 8.95526 29.1046 8.95526C30.6717 8.95526 32.3881 8.88063 34.5523 8.58212L36.4926 8.35824ZM37.0896 6.79108C37.015 6.79108 37.015 6.79108 36.9404 6.79108L34.3284 7.08958C32.3881 7.38809 30.6717 7.46272 29.1046 7.46272C27.3881 7.46272 25.821 7.31346 24.0299 7.08958L23.1344 6.94033C23.0598 6.94033 22.9105 6.94033 22.8359 6.94033C21.7911 6.94033 20.8956 7.6866 20.821 8.806C20.6717 10.2239 20.5971 11.4179 20.3732 12.7612C20.2986 13.3582 19.3284 14.5523 19.2538 15.0747C18.9553 17.3881 18.0598 24.1791 17.9105 25.597C17.3135 31.4179 16.9404 36.7165 25.5971 37.2388C25.821 37.2388 31.6419 37.612 34.9254 37.612C35.5971 37.612 36.1941 37.612 36.6419 37.5373C41.5672 37.0896 45.0747 34.7015 46.7911 32.3135C48.5075 29.9254 48.6568 26.1941 48.3583 23.806C47.8359 19.8508 44.9254 17.9851 43.2837 17.2388C41.8657 16.5672 38.7314 15.8209 37.1643 15.6717C37.3881 13.1344 37.6866 11.9403 37.9851 7.91048C38.0598 7.31346 37.612 6.79108 37.0896 6.79108Z" fill="black"/>
<path d="M29.5523 9.403C25.1493 9.403 22.3881 8.5821 21.8657 8.05971C22.3881 7.53733 25.1493 6.71643 29.5523 6.71643C32.015 6.71643 36.5672 6.71643 37.2389 7.61195C37.2389 7.61195 37.3135 7.68658 37.2389 7.83583C37.0896 8.35822 34.6269 9.403 29.5523 9.403Z" fill="white"/>
<path d="M29.5523 7.46269C30.9703 7.46269 34.3285 7.46269 35.8956 7.83583C34.7762 8.20896 32.612 8.65672 29.5523 8.65672C27.015 8.65672 25.0001 8.35821 23.8061 8.05971C25.0747 7.7612 27.015 7.46269 29.5523 7.46269ZM29.5523 5.97015C24.8508 5.97015 21.1195 6.9403 21.1195 8.05971C21.1195 9.17911 24.9255 10.1493 29.5523 10.1493C34.1792 10.1493 37.6867 9.17911 37.9852 8.05971C38.5822 6.04478 34.2538 5.97015 29.5523 5.97015Z" fill="black"/>
<path d="M19.5523 44.2538C16.418 44.2538 10.8956 43.9553 10.224 43.8807C7.31352 43.7314 5.37322 42.9852 4.25381 41.6419C2.68665 39.7762 2.8359 36.7911 3.28367 33.0598C3.43292 31.7911 4.25381 25.0001 4.62695 22.612C4.62695 22.4628 4.92546 22.015 5.07471 21.7165C5.37322 21.1941 5.67173 20.6717 5.74635 20.224C5.97023 18.8061 6.04486 17.5374 6.19411 16.1941C6.19411 15.6717 6.7165 15.1493 7.38814 15.1493C7.46277 15.1493 7.5374 15.1493 7.5374 15.1493L8.43292 15.2986C10.224 15.5971 11.8658 15.6717 13.5822 15.6717C15.1493 15.6717 16.8658 15.5971 18.9553 15.3732L21.5672 15.0747C21.6419 15.0747 21.7165 15.1493 21.7165 15.1493C21.7165 15.1493 21.7911 15.224 21.7911 15.2986C21.6419 17.612 21.418 18.9553 21.2687 20.224C21.1195 21.1195 21.0449 22.015 20.9702 23.1344C20.9702 23.5075 21.1941 23.8807 21.6419 23.9553C23.1344 24.1792 26.1941 24.8508 27.5374 25.5225C29.1046 26.2687 31.7165 27.9852 32.2389 31.4926C32.5374 33.8061 32.3135 37.3135 30.821 39.4031C30.0747 40.4478 27.2389 43.7314 21.1941 44.3284C20.821 44.2538 20.2986 44.2538 19.5523 44.2538Z" fill="white"/>
<path d="M21.0448 15.8209C20.8956 17.7612 20.7463 18.9553 20.597 20.0001C20.4478 20.8956 20.3732 21.7911 20.2985 22.9105C20.2239 23.7314 20.8209 24.403 21.5672 24.4777C23.209 24.7015 26.1194 25.3732 27.2388 25.9702C28.9553 26.7911 31.1194 28.3583 31.4926 31.3433C31.7911 33.5075 31.5672 36.7911 30.1493 38.7314C29.4776 39.7016 26.7911 42.8359 21.0448 43.3583C20.8209 43.3583 20.3732 43.4329 19.4776 43.4329C16.4179 43.4329 11.2687 43.1344 10.2239 43.0598C7.53735 42.9105 5.7463 42.2389 4.77616 41.1195C3.35825 39.4777 3.58213 36.6418 3.95526 33.1344C4.10451 31.8657 4.92541 25.2239 5.29854 22.7612C5.37317 22.612 5.52242 22.3135 5.67168 22.0896C6.04481 21.4926 6.34332 20.9702 6.41795 20.3732C6.64183 18.9553 6.71645 17.6866 6.86571 16.3433C6.86571 16.0448 7.08959 15.8956 7.3881 15.8956H7.46272L8.35824 16.0448C10.2239 16.3433 11.8657 16.4926 13.6568 16.4926C15.2239 16.4926 16.9403 16.418 19.1045 16.1195L21.0448 15.8209ZM21.6418 14.2538C21.5672 14.2538 21.5672 14.2538 21.4926 14.2538L18.8806 14.5523C16.8657 14.7762 15.1493 14.8508 13.5821 14.8508C11.8657 14.8508 10.2985 14.7015 8.5075 14.4777L7.61198 14.3284C7.53735 14.3284 7.3881 14.3284 7.31347 14.3284C6.26869 14.3284 5.37317 15.0747 5.29854 16.1941C5.14929 17.612 5.07466 18.806 4.85078 20.1493C4.77616 20.7463 3.80601 21.9404 3.73138 22.4627C3.43287 24.7762 2.53735 31.5672 2.3881 32.9851C1.86571 38.8807 1.49257 44.1045 10.2239 44.6269C10.4478 44.6269 16.2687 45.0001 19.5523 45.0001C20.2239 45.0001 20.8209 45.0001 21.2687 44.9254C26.1941 44.4777 29.7015 42.0896 31.4179 39.7015C33.1344 37.3135 33.2836 33.5821 32.9851 31.1941C32.4627 27.2389 29.5523 25.3732 27.9105 24.6269C26.4926 23.9553 23.3582 23.209 21.7911 23.0598C22.015 20.5224 22.3135 19.3284 22.612 15.2986C22.612 14.7762 22.1642 14.2538 21.6418 14.2538Z" fill="black"/>
<path d="M14.1044 16.8657C9.70143 16.8657 6.94023 16.0448 6.41785 15.5224C6.94023 15 9.70143 14.1791 14.1044 14.1791C16.5671 14.1791 21.1193 14.1791 21.791 15.0747C21.791 15.0747 21.8656 15.1493 21.791 15.2985C21.6417 15.7463 19.1044 16.8657 14.1044 16.8657Z" fill="white"/>
<path d="M14.1045 14.9254C15.5224 14.9254 18.8806 14.9254 20.4478 15.2985C19.403 15.6717 17.1642 16.1194 14.1045 16.1194C11.5672 16.1194 9.55223 15.8209 8.3582 15.5224C9.55223 15.2239 11.5672 14.9254 14.1045 14.9254ZM14.1045 13.4329C9.40297 13.4329 5.67163 14.403 5.67163 15.5224C5.67163 16.6418 9.4776 17.612 14.1045 17.612C18.7313 17.612 22.2388 16.6418 22.5373 15.5224C23.1343 13.5075 18.806 13.4329 14.1045 13.4329Z" fill="black"/>
</svg>
