<svg width="50" height="50" viewBox="0 0 50 50" fill="none" xmlns="http://www.w3.org/2000/svg">
<path d="M21.0232 47.2713C15.1937 47.2713 10.4573 42.5349 10.4573 36.7054V21.8403C10.4573 13.7519 17.0154 7.26666 25.0309 7.26666H25.7596C33.848 7.26666 40.3332 13.8248 40.3332 21.8403V36.7054C40.3332 42.5349 35.5968 47.2713 29.7674 47.2713H21.0232Z" fill="white"/>
<path d="M25.7596 7.92245C33.4108 7.92245 39.6046 14.1163 39.6046 21.7674V36.7054C39.6046 42.1705 35.1596 46.5426 29.7674 46.5426H21.0232C15.631 46.5426 11.186 42.0976 11.186 36.7054V21.8403C11.186 14.1891 17.3798 7.99532 25.031 7.99532H25.7596V7.92245ZM25.7596 6.46509H25.031C16.5782 6.46509 9.72864 13.3147 9.72864 21.7674V36.7054C9.72864 42.9721 14.8294 48 21.0232 48H29.7674C36.0341 48 41.062 42.8992 41.062 36.7054V21.8403C41.1348 13.3876 34.2124 6.46509 25.7596 6.46509Z" fill="black"/>
<path d="M25.6139 41.369C24.3752 41.369 23.1364 41.2961 21.8977 41.2232L18.9101 41.0046C17.1612 41.0046 15.7039 39.6201 15.7039 37.8713V32.0418C15.7039 30.293 17.0884 28.9085 18.8372 28.9085L21.7519 29.1271C22.9907 29.2 24.3023 29.2728 25.5411 29.2728C26.9984 29.2728 28.5287 29.2 29.986 29.0542L31.8806 28.9085C33.5566 28.9085 34.9411 30.293 34.9411 32.0418V37.8713C34.9411 39.6201 33.5566 41.0046 31.8077 41.0046L29.8403 41.2232C28.5287 41.2961 27.0713 41.369 25.6139 41.369Z" fill="white"/>
<path d="M18.8373 29.6372L21.752 29.8558C23.0636 29.9286 24.3024 30.0015 25.614 30.0015C27.1442 30.0015 28.6745 29.9286 30.1318 29.7829L31.9535 29.6372C33.2652 29.6372 34.2853 30.7302 34.2853 32.0418V37.8713C34.2853 39.1829 33.1923 40.2759 31.8807 40.2759C31.8078 40.2759 31.8078 40.2759 31.7349 40.2759L29.8404 40.4217C28.4559 40.5674 26.9985 40.6403 25.614 40.6403C24.3752 40.6403 23.2093 40.5674 21.9706 40.4945L18.983 40.2759C18.9101 40.2759 18.9101 40.2759 18.8373 40.2759C17.5256 40.2759 16.4326 39.1829 16.4326 37.8713V32.0418C16.5055 30.7302 17.5256 29.6372 18.8373 29.6372ZM31.9535 28.1798L30.059 28.3255C28.6016 28.4713 27.1442 28.5442 25.6869 28.5442C24.4481 28.5442 23.2093 28.4713 21.9706 28.3984L18.983 28.1798C16.8698 28.1798 15.121 29.9286 15.121 32.0418V37.8713C15.121 39.9845 16.8698 41.7333 18.983 41.7333L21.9706 41.9519C23.2093 42.0248 24.4481 42.0976 25.6869 42.0976C27.1442 42.0976 28.6016 42.0248 30.059 41.879L31.9535 41.7333C34.0667 41.7333 35.8155 39.9845 35.8155 37.8713V32.0418C35.8155 29.9286 34.0667 28.1798 31.9535 28.1798Z" fill="black"/>
<path d="M14.4651 17.614C11.8418 17.614 9.72864 15.5008 9.72864 12.8775V7.04808C9.72864 4.42482 11.8418 2.31165 14.4651 2.31165H36.3255C38.9488 2.31165 41.062 4.42482 41.062 7.04808V12.8775C41.062 15.5008 38.9488 17.614 36.3255 17.614H14.4651Z" fill="white"/>
<path d="M36.3256 3.18605C38.5116 3.18605 40.2605 4.93488 40.2605 7.12093V12.9504C40.2605 15.1364 38.5116 16.8853 36.3256 16.8853H14.4651C12.2791 16.8853 10.5302 15.1364 10.5302 12.9504V7.12093C10.5302 4.93488 12.2791 3.18605 14.4651 3.18605H36.3256ZM36.3256 1.58295H14.4651C11.4775 1.58295 9 4.06047 9 7.12093V12.9504C9 16.0109 11.4775 18.4155 14.4651 18.4155H36.3256C39.386 18.4155 41.7907 15.938 41.7907 12.9504V7.12093C41.8636 4.06047 39.386 1.58295 36.3256 1.58295Z" fill="black"/>
<path d="M19.3474 31.4589C18.6187 31.4589 18.0358 30.876 18.0358 30.1473V17.614H20.9505V30.1473C20.9505 30.876 20.3676 31.4589 19.6389 31.4589H19.3474Z" fill="white"/>
<path d="M20.2946 18.3426V30.1473C20.2946 30.4387 20.076 30.7302 19.7117 30.7302H19.3473C19.0559 30.7302 18.7644 30.5116 18.7644 30.1473V18.3426H20.2946ZM21.752 16.8853H17.3799V30.1473C17.3799 31.2403 18.2543 32.1876 19.4202 32.1876H19.7845C20.8776 32.1876 21.8248 31.3132 21.8248 30.1473V16.8853H21.752Z" fill="black"/>
<path d="M31.0791 31.4589C30.3504 31.4589 29.7675 30.876 29.7675 30.1473V17.614H32.6822V30.1473C32.6822 30.876 32.0992 31.4589 31.3706 31.4589H31.0791Z" fill="white"/>
<path d="M31.9535 18.3426V30.1473C31.9535 30.4387 31.7349 30.7302 31.3706 30.7302H31.0063C30.7148 30.7302 30.4233 30.5116 30.4233 30.1473V18.3426H31.9535ZM33.4109 16.8853H29.0388V30.1473C29.0388 31.2403 29.9132 32.1876 31.0791 32.1876H31.4435C32.5365 32.1876 33.4838 31.3132 33.4838 30.1473V16.8853H33.4109Z" fill="black"/>
<path d="M24.1565 19.9457C23.6464 19.9457 23.2821 19.5814 23.2821 19.0713V16.6667C23.2821 16.1566 23.6464 15.7922 24.1565 15.7922H26.7069C27.217 15.7922 27.5813 16.1566 27.5813 16.6667V19.0713C27.5813 19.5814 27.217 19.9457 26.7069 19.9457H24.1565Z" fill="white"/>
<path d="M26.707 16.4481C26.7798 16.4481 26.8527 16.521 26.8527 16.5938V18.9985C26.8527 19.0713 26.7798 19.1442 26.707 19.1442H24.1566C24.0837 19.1442 24.0108 19.0713 24.0108 18.9985V16.5938C24.0108 16.521 24.0837 16.4481 24.1566 16.4481H26.707ZM26.707 14.9907H24.1566C23.2821 14.9907 22.5535 15.7194 22.5535 16.5938V18.9985C22.5535 19.8729 23.2821 20.6016 24.1566 20.6016H26.707C27.5814 20.6016 28.3101 19.8729 28.3101 18.9985V16.5938C28.3101 15.7194 27.5814 14.9907 26.707 14.9907Z" fill="black"/>
<path d="M25.3225 16.5209C24.5938 16.5209 23.938 15.9379 23.938 15.1364V1.80151H26.7798V15.2093C26.7798 15.9379 26.1969 16.5938 25.3954 16.5938H25.3225V16.5209Z" fill="white"/>
<path d="M26.0512 2.53023V15.1364C26.0512 15.4279 25.7597 15.7194 25.4683 15.7194H25.3225C25.0311 15.7194 24.7396 15.4279 24.7396 15.1364V2.53023H26.0512ZM27.5814 1H23.2094V15.1364C23.2094 16.3023 24.1566 17.2496 25.3225 17.2496H25.4683C26.6342 17.2496 27.5814 16.3023 27.5814 15.1364V1Z" fill="black"/>
</svg>
