<svg width="50" height="50" viewBox="0 0 50 50" fill="none" xmlns="http://www.w3.org/2000/svg">
<path d="M25.821 49.2537C28.5075 49.2537 30.7463 47.0149 30.7463 44.3284V41.9403H20.8956V44.3284C20.8956 47.0149 23.0598 49.2537 25.821 49.2537Z" fill="white"/>
<path d="M21.6418 42.6866V44.3284C21.6418 46.6418 23.5075 48.5075 25.8209 48.5075C28.1343 48.5075 30 46.6418 30 44.3284V42.6866H21.6418ZM20.1493 41.194H31.4926V44.3284C31.4926 47.4627 28.9552 50 25.8209 50C22.6866 50 20.1493 47.4627 20.1493 44.3284V41.194Z" fill="black"/>
<path d="M20.5971 12.1642C23.7314 12.1642 26.3434 9.62687 26.3434 6.41792C26.3434 3.20896 23.7314 0.746277 20.5971 0.746277C19.2538 0.746277 15.224 0.746277 13.4329 3.43284C13.5822 3.50747 13.7314 3.5821 13.8807 3.65672C14.627 3.95523 15.9703 4.47762 15.9703 5.97016C15.8956 8.95523 17.3882 12.1642 20.5971 12.1642Z" fill="white"/>
<path d="M20.5971 1.49254C19.4777 1.49254 16.418 1.49254 14.6269 3.20896C15.5224 3.58209 16.6418 4.32836 16.6418 5.97015C16.6418 8.58209 17.8359 11.4179 20.5224 11.4179C23.2836 11.4179 25.5224 9.1791 25.5224 6.41791C25.5224 3.65672 23.3583 1.49254 20.5971 1.49254ZM20.5971 0C24.1792 0 27.0896 2.91045 27.0896 6.49254C27.0896 10.0746 24.1792 12.9851 20.5971 12.9851C17.015 12.9851 15.2239 9.55224 15.2239 6.04478C15.2239 4.10448 11.7911 4.62687 12.8359 3.20896C14.7015 0.0746272 18.9553 0 20.5971 0Z" fill="black"/>
<path d="M26.5672 43.5821C37.015 43.5821 44.0299 36.194 44.0299 25.2239C44.0299 14.3283 36.1195 6.11938 25.5224 6.11938C14.7762 6.11938 5.97021 14.6268 5.97021 25.2239C5.97021 35.2985 15.2239 43.5821 26.5672 43.5821Z" fill="white"/>
<path d="M25.5224 6.86565C15.1493 6.86565 6.6418 15.0746 6.6418 25.2239C6.6418 34.9253 15.5224 42.8358 26.4925 42.8358C36.5672 42.8358 43.2836 35.7462 43.2836 25.2239C43.2836 14.7015 35.6716 6.86565 25.5224 6.86565ZM25.5224 5.37311C36.791 5.37311 44.7761 14.2537 44.7761 25.2239C44.7761 36.194 37.8358 44.3283 26.5672 44.3283C15.2985 44.3283 5.22388 36.194 5.22388 25.2239C5.22388 14.2537 14.3284 5.37311 25.5224 5.37311Z" fill="black"/>
<path d="M18.7313 19.1791C16.5672 19.1791 15.2239 21.4926 15.2239 23.6567C15.2239 25.8209 16.4925 28.1344 18.7313 28.1344C20.6716 28.1344 21.7164 26.4179 22.0896 24.9254C22.1642 24.6269 22.4627 24.3284 22.8358 24.3284C23.3582 24.3284 23.8806 24.0299 23.8806 23.5821C23.8806 23.1344 23.3582 22.8358 22.8358 22.8358C22.4627 22.8358 22.2388 22.612 22.0896 22.2388C21.7164 20.8955 20.597 19.1791 18.7313 19.1791ZM18.7313 18.4329C20.8209 18.4329 22.3134 20.1493 22.7612 22.2388C23.6567 22.2388 24.5522 22.8358 24.5522 23.7314C24.5522 24.6269 23.6567 25.1493 22.7612 25.2239C22.3134 27.2388 20.8209 29.0299 18.7313 29.0299C16.1194 29.0299 14.4776 26.4179 14.4776 23.806C14.4776 21.0448 16.1194 18.4329 18.7313 18.4329Z" fill="black"/>
<path d="M18.9552 26.194C17.8836 26.194 17.0149 25.058 17.0149 23.6567C17.0149 22.2554 17.8836 21.1194 18.9552 21.1194C20.0268 21.1194 20.8955 22.2554 20.8955 23.6567C20.8955 25.058 20.0268 26.194 18.9552 26.194Z" fill="black"/>
<path d="M36.4179 19.1791C34.4776 19.1791 33.4328 20.8955 33.0597 22.3881C32.9851 22.6866 32.6866 22.9851 32.3134 22.9851C31.791 22.9851 31.2686 23.2836 31.2686 23.7314C31.2686 24.1791 31.791 24.4776 32.3134 24.4776C32.6866 24.4776 32.9104 24.7015 33.0597 25.0746C33.4328 26.5672 34.4776 28.2836 36.4179 28.2836C38.5821 28.2836 39.9254 25.9702 39.9254 23.806C39.9254 21.6418 38.5821 19.1791 36.4179 19.1791ZM36.4179 18.4329C39.0298 18.4329 40.6716 21.0448 40.6716 23.6567C40.6716 26.2687 39.0298 28.8806 36.4179 28.8806C34.3283 28.8806 32.8358 27.1642 32.388 25.0746C31.4925 25.0746 30.597 24.4776 30.597 23.5821C30.597 22.6866 31.4925 22.1642 32.388 22.0896C32.8358 20.1493 34.3283 18.4329 36.4179 18.4329Z" fill="black"/>
<path d="M36.1194 26.194C35.0478 26.194 34.1791 25.058 34.1791 23.6567C34.1791 22.2554 35.0478 21.1194 36.1194 21.1194C37.191 21.1194 38.0597 22.2554 38.0597 23.6567C38.0597 25.058 37.191 26.194 36.1194 26.194Z" fill="black"/>
<path d="M27.4627 29.3284H28.209C28.9552 29.3284 29.5522 28.8806 29.5522 28.1343C29.5522 27.3881 28.9552 26.9403 28.209 26.9403" stroke="black" stroke-miterlimit="10" stroke-linecap="round" stroke-linejoin="round"/>
<path d="M25.1492 35C25.9701 35.1493 26.6418 35.2985 27.6866 35.2985C28.806 35.2985 29.5522 35.2239 30.4478 35" stroke="black" stroke-miterlimit="10" stroke-linecap="round" stroke-linejoin="round"/>
<path d="M42.2388 17.3881C28.3582 14.3284 19.7015 7.23883 19.7015 7.23883C19.7015 7.23883 18.5821 18.4329 6.34325 22.1642" stroke="black" stroke-width="2" stroke-miterlimit="10" stroke-linecap="round" stroke-linejoin="round"/>
</svg>
