<svg width="50" height="50" viewBox="0 0 50 50" fill="none" xmlns="http://www.w3.org/2000/svg">
<g clip-path="url(#clip0)">
<path d="M14.0298 46.2686C13.3582 46.2686 12.7612 45.9701 12.3881 45.5224C11.9403 45 11.791 44.403 11.8657 43.7313L13.2089 27.6119L13.806 17.7612C13.806 17.388 13.5821 17.0149 13.2089 16.9403C13.1343 16.9403 13.1343 16.9403 13.0597 16.9403C12.7612 16.9403 12.4627 17.1642 12.3134 17.4627L10.0746 24.0298C9.62686 25.2985 9.25372 26.6418 9.02984 27.9851L7.2388 38.2836C7.08954 39.2537 6.26865 39.9254 5.2985 39.9254C5.22387 39.9254 5.14924 39.9254 4.99999 39.9254L3.20895 39.5522C2.61193 39.4776 2.16417 39.1791 1.86566 38.806C1.56716 38.3582 1.4179 37.8358 1.49253 37.3134L3.05969 26.6418C3.28357 25.2239 3.65671 23.7313 4.10447 22.388L8.20895 10.3731C8.65671 9.17908 9.32835 8.20894 10.2985 7.46267C11.4925 6.56714 12.7612 5.74625 14.1791 5.14923L15.4478 4.55222C16.7164 4.02983 18.0597 3.73132 19.403 3.73132H31.3433C32.6866 3.73132 34.0298 4.02983 35.2985 4.55222L36.5672 5.14923C37.9104 5.74625 39.2537 6.56714 40.4478 7.46267C41.4179 8.20894 42.1642 9.25371 42.5373 10.3731L46.5672 22.2388C47.0895 23.7313 47.4627 25.2985 47.6866 26.791L49.2537 37.3134C49.3283 37.8358 49.1791 38.3582 48.8806 38.7313C48.5821 39.1791 48.1343 39.403 47.6119 39.4776L45.8955 39.6268C45.7463 39.6268 45.6716 39.6268 45.597 39.6268C44.7015 39.6268 43.8806 38.9552 43.7313 38.0597L41.9403 27.8358C41.6418 26.4179 41.2686 25 40.8209 23.5821L38.3582 17.3134C38.2089 17.0149 37.9851 16.8657 37.6866 16.8657C37.6119 16.8657 37.6119 16.8657 37.5373 16.8657C37.1642 16.9403 36.9403 17.3134 36.9403 17.6119L37.5373 27.6119L38.806 43.6567C38.9552 44.3283 38.7313 45 38.3582 45.5224C37.9104 46.0448 37.3134 46.2686 36.7164 46.2686H14.0298Z" fill="white"/>
<path d="M31.3433 4.47758C32.612 4.47758 33.8806 4.77609 35 5.22385L36.2687 5.82087C37.612 6.41788 38.806 7.16415 39.9254 8.05967C40.8209 8.73132 41.4179 9.62684 41.7911 10.597L45.8209 22.4627C46.3433 23.8806 46.6418 25.3731 46.8657 26.9403L48.5075 37.4627C48.5821 37.7612 48.5075 38.0597 48.2836 38.3582C48.1344 38.5821 47.8358 38.7313 47.5373 38.8059L45.8209 38.9552C45.8209 38.9552 45.8209 38.9552 45.7463 38.9552C45.6717 38.9552 45.6717 38.9552 45.597 38.9552C45 38.9552 44.5523 38.5821 44.4776 37.9851L42.6866 27.7612C42.3881 26.2686 42.0149 24.8507 41.5672 23.4328C41.5672 23.4328 41.5672 23.4328 41.5672 23.3582L39.0299 17.1642C38.806 16.5671 38.209 16.194 37.612 16.194C37.5373 16.194 37.3881 16.194 37.3135 16.194C36.5672 16.3433 36.1194 17.0149 36.1194 17.7612L36.7164 27.6865L38.0597 43.7313C38.0597 43.8059 38.0597 43.8059 38.0597 43.8806C38.1343 44.4776 37.9105 44.8507 37.7612 45.0746C37.612 45.2985 37.2388 45.597 36.6418 45.597H14.0299C13.4329 45.597 13.0597 45.2985 12.9105 45.0746C12.7612 44.8507 12.4627 44.4776 12.612 43.8806C12.612 43.8059 12.612 43.8059 12.612 43.7313L13.9552 27.6865L14.5523 17.8358C14.6269 17.0895 14.1045 16.4179 13.3582 16.2686C13.2836 16.2686 13.1343 16.2686 13.0597 16.2686C12.3881 16.2686 11.8657 16.6418 11.6418 17.3134L9.47763 23.8806C9.02987 25.2239 8.65673 26.5671 8.43285 27.985L6.49255 38.1343C6.41793 38.7313 5.89554 39.1045 5.29852 39.1045C5.2239 39.1045 5.2239 39.1045 5.14927 39.1045L3.35823 38.8059H3.2836C2.98509 38.7313 2.68658 38.5821 2.4627 38.3582C2.31345 38.0597 2.23882 37.7612 2.23882 37.388L3.80599 26.7164C4.02987 25.2985 4.32838 23.9552 4.77614 22.5373L8.95524 10.597C9.32838 9.62684 9.92539 8.73132 10.8209 8.05967C11.9403 7.16415 13.209 6.41788 14.4776 5.82087L15.7463 5.22385C16.9403 4.70146 18.1343 4.47758 19.403 4.47758H24.2538H26.4926H31.3433ZM31.3433 2.98505H26.4926H24.2538H19.403C17.9105 2.98505 16.4926 3.28355 15.1493 3.88057L13.8806 4.47758C12.4627 5.14923 11.1194 5.89549 9.85076 6.86564C8.80599 7.68654 7.98509 8.80594 7.53733 10.1492L3.43285 22.1642C2.91046 23.5821 2.61196 25.0746 2.38808 26.5671L0.746285 37.1642C0.522405 38.6567 1.56718 40.0746 3.05972 40.2985L4.92539 40.6716C5.07464 40.6716 5.14927 40.6716 5.29852 40.6716C6.56718 40.6716 7.76121 39.7761 7.98509 38.4328L9.85076 28.1343C10.0746 26.791 10.4478 25.5224 10.8955 24.2537L13.1343 17.6865L12.5373 27.5373L11.194 43.5074C10.8955 45.2985 12.2388 46.9403 14.1045 46.9403H36.7164C38.5075 46.9403 39.9254 45.2985 39.6269 43.5074L38.2836 27.5373L37.6866 17.6865L40.1493 23.8806C40.597 25.2239 40.9702 26.5671 41.2687 27.985L43.0597 38.2089C43.2836 39.4776 44.403 40.3731 45.6717 40.3731C45.8209 40.3731 45.8955 40.3731 46.0448 40.3731L47.7612 40.2239C49.2538 40 50.2985 38.6567 50.0746 37.1642L48.5075 26.6418C48.2836 25.0746 47.9105 23.4328 47.3881 21.9403L43.209 10.1492C42.7612 8.88057 41.9403 7.76117 40.8955 6.86564C39.7015 5.89549 38.3582 5.0746 36.8657 4.47758L35.597 3.88057C34.2538 3.28355 32.7612 2.98505 31.3433 2.98505Z" fill="black"/>
<path d="M30.4478 4.17908C29.7762 6.26864 27.7613 7.76117 25.4478 7.76117C22.9851 7.76117 20.8956 6.04476 20.2986 3.73132" stroke="black" stroke-width="2.0148" stroke-miterlimit="10" stroke-linecap="round" stroke-linejoin="round"/>
</g>
<defs>
<clipPath id="clip0">
<rect width="50" height="50" fill="white"/>
</clipPath>
</defs>
</svg>
